<svg width="20" height="21" xmlns="http://www.w3.org/2000/svg"><path d="M.307 7.45c.075.037.116.113.108.209-.008.108.042.187.1.27.042.063.092.134.1.205.013.117.076.146.171.167.109.025.197.084.226.2.029.109.087.138.196.096.213-.079.426-.167.638-.25-.004.025-.012.063-.016.1-.017.15-.042.3-.038.447.004.154.1.25.242.25a27 27 0 0 0 .822-.013.458.458 0 0 0 .342-.158c.013-.013.03-.033.042-.03.163.03.25-.083.35-.179a.555.555 0 0 1 .41-.18c.104.005.212-.028.333-.045 0 0 .017.02.03.046.058.092.083.175.012.28-.033.054-.017.141-.02.216-.005.055.008.117-.01.167a.32.32 0 0 0 .005.23c.092.2.234.359.4.496a.36.36 0 0 0 .31.08c.037-.005.083.016.12.037.05.03.088.088.138.1a.32.32 0 0 1 .171.109c.063.075.142.125.242.108.075-.012.109.009.13.084.045.158.141.204.304.167a.25.25 0 0 1 .155.02c.104.046.2.11.3.155.067.03.1.07.108.138.013.096.021.187.021.283-.004.13.013.263-.1.368-.017.012-.025.046-.025.066.013.109.034.213.121.288.146.125.317.2.51.217.083.009.17 0 .258.004.113.005.15.059.12.163a.546.546 0 0 1-.028.08c-.109.22-.042.367.187.438.046.016.113.066.113.1.009.175.084.363-.054.526a.12.12 0 0 0-.038.062c-.008.046-.025.104-.008.142.02.046.02.07-.008.108a.506.506 0 0 0-.113.276c-.013.221-.042.442-.058.663a2.898 2.898 0 0 0-.009.33c.004.092.054.171.146.192.125.025.255.042.38.042.338 0 .588.3.53.634a1.21 1.21 0 0 0-.008.275c.004.117.041.142.158.121.054-.008.109-.025.163-.029.133-.008.23.075.213.209a2.05 2.05 0 0 1-.096.446c-.055.159-.067.155.07.25.138.097.193.23.172.393-.013.108-.042.213-.046.321-.004.167-.117.255-.242.296-.338.105-.597.318-.847.547-.155.142-.288.3-.43.455-.08.083-.083.138-.02.238.016.029.032.058.053.083.1.13.23.238.188.434-.017.08.042.117.121.092a.271.271 0 0 0 .092-.046c.067-.046.121-.02.163.03.162.204.346.379.55.533a.409.409 0 0 1 .18.267c.012.096.07.105.146.096.07-.008.138-.029.213-.046.046.096.117.109.183.025a.297.297 0 0 0 .071-.125.934.934 0 0 1 .276-.475c.137-.13.258-.276.392-.422.008.008.025.017.037.03.105.108.226.1.305-.026.046-.075.092-.15.13-.233a.868.868 0 0 1 .287-.338c.088-.067.163-.15.226-.238.1-.146.133-.326.154-.497.02-.15.03-.304.046-.455.004-.058.017-.117.025-.17.03-.189.188-.335.163-.543.041.02.07.042.104.058.058.025.104.017.134-.05.062-.15.196-.221.338-.263a.915.915 0 0 0 .3-.162c.104-.088.213-.172.367-.163.226.008.434-.046.593-.221.137-.15.284-.176.459-.075a.59.59 0 0 0 .367.054c.25-.038.467-.146.672-.288.158-.113.3-.242.384-.426a.48.48 0 0 1 .267-.267.327.327 0 0 0 .112-.062c.163-.196.326-.397.484-.601.08-.105.042-.23.05-.347.005-.108.017-.225.113-.287.167-.113.25-.276.317-.451.03-.071.03-.155.042-.23-.004-.012.025-.02.03-.033a.98.98 0 0 0 .037-.159c.029-.15.058-.296.083-.446.03-.18.054-.359.08-.538.025-.167.033-.334.066-.501.021-.117.088-.221.209-.259.392-.133.663-.388.78-.784a.412.412 0 0 1 .359-.317c.213-.038.409-.113.534-.305.034-.054.054-.117.096-.163.109-.117.225-.225.338-.338.267-.263.367-.571.276-.939-.034-.125-.05-.25-.071-.38-.017-.104-.009-.216-.038-.316-.067-.222-.192-.397-.446-.439-.071-.012-.138-.033-.209-.041a.597.597 0 0 1-.38-.209 14.72 14.72 0 0 1-.484-.655c-.1-.142-.175-.296-.38-.313-.025 0-.054-.038-.07-.067a.456.456 0 0 0-.372-.238.692.692 0 0 0-.263.009c-.23.075-.438.008-.642-.071a.585.585 0 0 1-.226-.146.427.427 0 0 0-.267-.13c-.192-.029-.371.025-.546.092-.088.034-.18.067-.28.1.046-.18.088-.342.134-.505.02-.079.012-.12-.071-.154a2.993 2.993 0 0 1-.36-.196c-.058-.038-.103-.092-.166-.13a2.177 2.177 0 0 0-.718-.258c-.283-.054-.55-.013-.784.171-.117.092-.234.18-.347.263a.613.613 0 0 0-.158-.221.493.493 0 0 0 .13-.034c.083-.033.166-.07.237-.12a3.64 3.64 0 0 0 .363-.31c.067-.066.05-.12-.037-.162a1.74 1.74 0 0 0-.768-.163c-.125 0-.23.05-.326.109-.1.062-.187.137-.292.196-.083.046-.17.091-.296.062.037-.079.058-.158.104-.22a2.12 2.12 0 0 1 .701-.618c.08-.042.146-.096.13-.2-.013-.076.016-.126.075-.168.046-.033.087-.07.146-.12-.054-.03-.088-.055-.13-.067-.079-.03-.17-.042-.246-.08-.05-.025-.1-.075-.112-.125-.025-.096-.017-.2-.042-.3-.05-.23-.113-.46-.167-.668-.104-.07-.171-.03-.23.038-.058.062-.125.116-.179.183-.025.034-.046.084-.038.125.017.126.017.146-.1.176a.28.28 0 0 0-.2.183c-.025.067-.075.1-.142.117a1.483 1.483 0 0 1-.559.008c-.142-.02-.271-.054-.355-.183-.016-.03-.058-.05-.087-.054-.121-.021-.242-.034-.363-.055-.088-.016-.138.013-.188.088-.088.142-.296.3-.526.209-.146-.059-.3-.038-.45.012-.142.046-.288.08-.434.104a.316.316 0 0 1-.293-.075.983.983 0 0 1-.312-.621c-.025-.205.054-.38.158-.543.113-.171.109-.192-.046-.313-.075-.058-.104-.125-.083-.217.008-.037.033-.075.025-.104-.009-.046-.03-.104-.063-.121-.096-.05-.17-.021-.246.083-.104.138-.196.292-.384.322-.133.02-.271.033-.409.045-.033.005-.067-.008-.1-.004-.104.004-.159.075-.209.155-.087.146-.125.15-.25.033-.012-.008-.02-.025-.033-.03-.113-.058-.221-.116-.334-.162-.03-.012-.092.017-.113.046-.075.104-.075.225-.046.346a.49.49 0 0 0 .28.355c.142.067.133.238 0 .313-.042.025-.092.038-.134.063a74.3 74.3 0 0 0-.85.492.169.169 0 0 1-.172.013c-.108-.05-.213-.055-.313.02-.012.013-.05.013-.067 0-.13-.087-.233-.192-.263-.358-.025-.147-.096-.255-.254-.293a.542.542 0 0 0-.305.034.933.933 0 0 1-.43.029 1.153 1.153 0 0 0-.317 0c-.07.008-.117.067-.125.142-.008.08.042.125.109.154.046.021.096.034.129.067.033.03.063.08.063.117 0 .03-.046.07-.08.083a.528.528 0 0 1-.162.021c-.197.009-.288.13-.21.309.051.113.122.221.201.317.146.188.163.363.03.555-.076.109-.147.221-.105.367.008.03-.004.067-.02.096a.873.873 0 0 0-.097.4.304.304 0 0 1-.025.105c-.02.075-.058.15-.062.225-.013.184-.092.25-.263.197a.535.535 0 0 0-.45.05c-.051.025-.114.029-.172.033-.067 0-.133-.012-.204-.02-.017.091-.08.129-.163.141a.125.125 0 0 0-.054.03c-.267.183-.363.467-.434.763-.021.08-.025.154-.121.2a.444.444 0 0 0-.159.159c-.104.154-.1.267.017.413z" fill="#22b1a7"/></svg>