<svg width="10" height="10" xmlns="http://www.w3.org/2000/svg"><path d="M5 7.747a.4.4 0 0 0 .293-.123l2.956-2.956a.4.4 0 0 0 .123-.293.4.4 0 0 0-.123-.293l-.664-.664a.4.4 0 0 0-.293-.124.4.4 0 0 0-.293.124L5 5.417 3.001 3.418a.4.4 0 0 0-.293-.124.4.4 0 0 0-.293.124l-.664.664a.4.4 0 0 0-.123.293.4.4 0 0 0 .123.293l2.956 2.956A.4.4 0 0 0 5 7.747zM9.33 2.49c.446.766.67 1.603.67 2.51 0 .907-.224 1.744-.67 2.51a4.978 4.978 0 0 1-1.82 1.82A4.891 4.891 0 0 1 5 10a4.891 4.891 0 0 1-2.51-.67A4.978 4.978 0 0 1 .67 7.51 4.891 4.891 0 0 1 0 5c0-.907.224-1.744.67-2.51A4.978 4.978 0 0 1 2.49.67 4.891 4.891 0 0 1 5 0c.907 0 1.744.224 2.51.67a4.978 4.978 0 0 1 1.82 1.82z" fill="#c2a0f2"/></svg>