<svg width="240" height="512" viewBox="0 0 240 512" xmlns="http://www.w3.org/2000/svg"><title>Female 3</title><g fill="none"><path d="M56 64c0-35.346 28.654-64 64-64 35.346 0 64 28.654 64 64 0 35.346-28.654 64-64 64-35.346 0-64-28.654-64-64z" fill="#620ED9"/><path d="M72 144h11.37a87.91 87.91 0 0 0 73.28 0H168a23.998 23.998 0 0 1 23.28 18.18l48 192A24 24 0 0 1 216 384h-56v104c0 13.255-10.745 24-24 24h-32c-13.255 0-24-10.745-24-24V384H24A24 24 0 0 1 .73 354.18l48-192A24 24 0 0 1 72 144z" fill="#620ED9"/></g></svg>
