<svg width="24" height="24" xmlns="http://www.w3.org/2000/svg"><path d="M14.828 14.828A3.854 3.854 0 0 0 16 12a3.85 3.85 0 0 0-1.172-2.828A3.854 3.854 0 0 0 12 8a3.85 3.85 0 0 0-2.828 1.172A3.854 3.854 0 0 0 8 12a3.85 3.85 0 0 0 1.172 2.828A3.854 3.854 0 0 0 12 16a3.85 3.85 0 0 0 2.828-1.172zm1.531-7.187c1.198 1.198 1.797 2.65 1.797 4.359 0 1.708-.599 3.161-1.797 4.36-1.198 1.197-2.65 1.796-4.359 1.796-1.708 0-3.161-.599-4.36-1.797C6.444 15.161 5.845 13.71 5.845 12c0-1.708.599-3.161 1.797-4.36C8.839 6.444 10.29 5.845 12 5.845c1.708 0 3.161.599 4.36 1.797zm3.063-3.063c.281.281.422.62.422 1.016s-.14.734-.422 1.015c-.281.282-.62.422-1.016.422s-.734-.14-1.015-.422a1.384 1.384 0 0 1-.422-1.015c0-.396.14-.735.422-1.016.28-.281.62-.422 1.015-.422.396 0 .735.14 1.016.422zm-6.227-2.43c-.724.006-1.122.008-1.195.008-.073 0-.471-.002-1.195-.008a84.765 84.765 0 0 0-1.649 0c-.375.006-.877.021-1.508.047-.63.026-1.166.078-1.609.157a6.265 6.265 0 0 0-1.117.289c-.521.208-.98.51-1.375.906a4.054 4.054 0 0 0-.906 1.375 6.287 6.287 0 0 0-.29 1.117c-.078.443-.13.98-.156 1.61-.026.63-.041 1.132-.047 1.507-.005.375-.005.925 0 1.649.006.724.008 1.122.008 1.195 0 .073-.002.471-.008 1.195a84.765 84.765 0 0 0 0 1.649c.006.375.021.877.047 1.508.026.63.078 1.166.157 1.609.078.443.174.815.289 1.117.208.521.51.98.906 1.375.396.396.854.698 1.375.906.302.115.674.211 1.117.29.443.078.98.13 1.61.156.63.026 1.132.041 1.507.047.375.005.925.005 1.649 0A241.54 241.54 0 0 1 12 21.844c.073 0 .471.002 1.195.008.724.005 1.274.005 1.649 0 .375-.006.877-.021 1.508-.047.63-.026 1.166-.078 1.609-.157a6.265 6.265 0 0 0 1.117-.289c.521-.208.98-.51 1.375-.906.396-.396.698-.854.906-1.375.115-.302.211-.674.29-1.117.078-.443.13-.98.156-1.61.026-.63.041-1.132.047-1.507.005-.375.005-.925 0-1.649A241.54 241.54 0 0 1 21.844 12c0-.073.002-.471.008-1.195.005-.724.005-1.274 0-1.649a62.124 62.124 0 0 0-.047-1.508 12.382 12.382 0 0 0-.157-1.609 6.265 6.265 0 0 0-.289-1.117 4.036 4.036 0 0 0-.906-1.375 4.054 4.054 0 0 0-1.375-.906 6.265 6.265 0 0 0-1.117-.29c-.443-.078-.98-.13-1.61-.156a57.886 57.886 0 0 0-1.507-.047 84.765 84.765 0 0 0-1.649 0zm10.727 4.899C23.974 7.964 24 9.615 24 12c0 2.385-.026 4.036-.078 4.953-.104 2.167-.75 3.844-1.938 5.031-1.187 1.188-2.864 1.834-5.03 1.938-.918.052-2.569.078-4.954.078s-4.036-.026-4.953-.078c-2.167-.104-3.844-.75-5.031-1.938C.828 20.797.182 19.12.078 16.954.026 16.035 0 14.384 0 12s.026-4.036.078-4.953c.104-2.167.75-3.844 1.938-5.031C3.203.828 4.88.182 7.046.078 7.965.026 9.616 0 12 0s4.036.026 4.953.078c2.167.104 3.844.75 5.031 1.938 1.188 1.187 1.834 2.864 1.938 5.03z" fill="#fff"/></svg>