<svg width="276" height="54" viewBox="0 0 276 54" xmlns="http://www.w3.org/2000/svg"><title>Group 15</title><g fill="none" fill-rule="evenodd"><g fill="#FFF"><path d="M142.266 16.703c8.65.267 7.577 1.46 7.242-6.818-1.8 2.642-3.167 1.392-4.824.04-8.487-6.885-20.68-6.704-28.96.428-8.28 7.133-10.278 19.174-4.744 28.603 5.534 9.429 17.014 13.543 27.268 9.774 10.385-3.746 16.526-14.477 14.5-25.34-.068-.369-.141-.744-.198-1.136-.091-.642-.352-1.437.567-1.62.92-.181 1.033.569 1.204 1.256.752 3.043.88 6.207.38 9.301-1.667 10.92-10.424 19.374-21.384 20.645-10.961 1.272-21.417-4.954-25.534-15.202-4.111-10.181-.942-21.858 7.75-28.556a24.417 24.417 0 0 1 29.56-.192c1.765 1.352 2.775 1.323 4.029-.33.38-.494.868-1.176 1.612-.949.942.29.743 1.193.749 1.926 0 2.75-.046 5.494 0 8.238.034 1.415-.437 2.103-1.93 2.08-2.837-.046-5.675 0-8.513 0-.658 0-1.436.045-1.702-.693-.267-.739.306-1.29.834-1.66 2.633-1.84 1.163-2.812-.692-3.914a17.387 17.387 0 0 0-21.603 2.872 17.434 17.434 0 0 0-1.86 21.736 17.39 17.39 0 0 0 20.8 6.508c7.6-2.984 12.106-10.856 10.835-18.93a.842.842 0 0 1-.045-.277c.29-1.29-1.703-3.37 0-3.648 1.975-.318 1.617 2.375 1.867 3.761 1.555 8.59-3.587 17.448-11.867 20.749-8.396 3.37-18.004.427-23.08-7.069a19.27 19.27 0 0 1 1.992-24.079 19.218 19.218 0 0 1 23.925-3.174c.647.393 1.272.82 1.873 1.278 1.544 1.142 3.343 2.267-.05 4.392z" fill-rule="nonzero"/><path d="M117.493 27c.576.1 1.486-.136 1.507.991.02 1.127-.9.973-1.543 1.003-.643.03-1.543 0-1.45-1.127.051-.85.792-.867 1.486-.867zm12.369-12c-1.036-.352-.862-1.153-.833-1.857 0-.594.231-1.284 1.081-1.118 1.088.212.886 1.108.857 1.822-.018.604-.185 1.138-1.105 1.153zM146 28.117c-.41 1.065-1.216.882-1.94.853-.636 0-1.256-.341-1.001-1.23.255-.887 1.09-.74 1.73-.717.64.024 1.191.16 1.211 1.094zM130.015 39c1.024.188 1.012.922.972 1.578-.04.657 0 1.554-1.15 1.406-.983-.138-.77-1.019-.828-1.675-.058-.657.155-1.166 1.006-1.309z" fill-rule="nonzero"/><path stroke-linecap="round" stroke-linejoin="round" d="M129.75 27.25l-2.25 7.25m2-7l7-6" stroke="#FFF"/></g><path d="M162.406 50.58a1.304 1.304 0 0 1-.405-.981V6.827a2.8 2.8 0 0 1 .831-2.007 2.84 2.84 0 0 1 2.023-.82h12.375a14.856 14.856 0 0 1 7.416 1.904 14.455 14.455 0 0 1 5.364 5.2 13.932 13.932 0 0 1-.845 15.608 14.36 14.36 0 0 1-7.416 5.099l10.98 16.89c.172.278.265.597.27.923a1.27 1.27 0 0 1-.43.981 1.586 1.586 0 0 1-1.098.394h-5.423a1.912 1.912 0 0 1-1.69-.922l-10.98-17.545h-3.243v17.067c.01.367-.134.722-.397.98-.265.26-.625.403-.997.395h-5.296a1.348 1.348 0 0 1-1.039-.394zm14.427-25.638a6.912 6.912 0 0 0 5-1.87 6.317 6.317 0 0 0 1.951-4.764 6.5 6.5 0 0 0-1.95-4.864 6.835 6.835 0 0 0-5.001-1.904h-6.757v13.42l6.757-.017zm22.631 25.633a1.417 1.417 0 0 1-.463-1.083 1.649 1.649 0 0 1 .067-.516l14.314-43.543a1.9 1.9 0 0 1 .757-1.041 2.164 2.164 0 0 1 1.289-.391h5.144c.461-.011.913.126 1.288.391a1.9 1.9 0 0 1 .758 1.041l14.314 43.543c.05.167.072.341.067.516.014.41-.155.806-.463 1.083-.303.28-.705.433-1.12.425h-4.748a2.106 2.106 0 0 1-1.297-.425 2.107 2.107 0 0 1-.758-1.083l-2.964-9.395h-15.425l-2.972 9.395c-.13.432-.395.811-.758 1.083a2.063 2.063 0 0 1-1.288.425h-4.622a1.603 1.603 0 0 1-1.12-.425zm23.895-17.857l-5.414-17.424-5.414 17.424h10.828zm27.493 18.144a24.816 24.816 0 0 1-6.34-3.216 1.059 1.059 0 0 1-.456-.694 1.215 1.215 0 0 1 .067-.897l2.273-4.18c.212-.5.703-.816 1.236-.796a1.91 1.91 0 0 1 .98.263c3.24 2.081 6.283 3.122 9.126 3.122a8.095 8.095 0 0 0 5.427-1.692 5.514 5.514 0 0 0 1.958-4.41 4.716 4.716 0 0 0-.97-3.02 8.13 8.13 0 0 0-2.606-2.057c-1.079-.576-2.664-1.278-4.746-2.124l-1.884-.796a24.014 24.014 0 0 1-7.467-4.908c-2.02-1.986-3.029-4.903-3.029-8.75a14.132 14.132 0 0 1 1.792-7.169 12.447 12.447 0 0 1 4.979-4.84 15.175 15.175 0 0 1 7.351-1.693 21.317 21.317 0 0 1 6.887 1.092c2.198.74 4.27 1.824 6.14 3.215.234.167.397.418.456.703.093.296.069.618-.066.897l-2.14 4.172c-.212.502-.702.82-1.237.804a1.92 1.92 0 0 1-.98-.27 19.643 19.643 0 0 0-4.845-2.387 13.693 13.693 0 0 0-4.148-.728 6.402 6.402 0 0 0-4.605 1.625 5.497 5.497 0 0 0-1.66 4.147 5.544 5.544 0 0 0 1.826 4.316 21.458 21.458 0 0 0 5.949 3.385c.392.13 1.878.736 4.455 1.82a14.213 14.213 0 0 1 6.14 4.747 12.122 12.122 0 0 1 2.282 7.363 14.05 14.05 0 0 1-1.917 7.329 13.299 13.299 0 0 1-5.368 4.976 16.977 16.977 0 0 1-7.932 1.785 21.49 21.49 0 0 1-6.928-1.134zm-183.508-.259a1.487 1.487 0 0 1-.343-.985V5.38c-.012-.36.11-.71.343-.984A1.09 1.09 0 0 1 68.18 4h4.626c.323.001.629.146.836.396.232.273.354.624.343.984v17.79H91.04V5.38a1.41 1.41 0 0 1 .343-.984c.205-.252.512-.397.836-.396h4.6c.324-.001.631.144.837.396.235.271.358.624.343.984v44.238c.012.36-.11.711-.343.985a1.101 1.101 0 0 1-.837.395h-4.6a1.101 1.101 0 0 1-.836-.395 1.444 1.444 0 0 1-.343-.985V30.684H74.018v18.934c.009.36-.113.71-.343.985-.209.247-.514.39-.836.395h-4.584a1.118 1.118 0 0 1-.911-.395z" stroke="#FFF" stroke-width="3"/><path d="M5.597 51.31a1.38 1.38 0 0 1-.43-.996c.018-.217.068-.43.149-.631L21.3 9.033H1.688c-.4.015-.787-.138-1.07-.422a1.447 1.447 0 0 1-.42-1.073V2.256c-.014-.397.136-.78.413-1.063A1.506 1.506 0 0 1 1.688.76h25.444a3.044 3.044 0 0 1 2.166.89c.575.573.898 1.353.898 2.166V8.8L13.98 50.33a2.374 2.374 0 0 1-.845 1.046c-.378.25-.822.384-1.275.382H6.724a1.472 1.472 0 0 1-1.127-.448zm29.345-.654a2.67 2.67 0 0 1-.825-1.946v-5.247a19.707 19.707 0 0 1 1.4-8.193 13.545 13.545 0 0 1 4.286-5.122 115.25 115.25 0 0 1 9.793-6.176 10.154 10.154 0 0 0 3.462-3.052 6.634 6.634 0 0 0 1.094-3.73 5.644 5.644 0 0 0-1.794-4.39 7.198 7.198 0 0 0-5.058-1.66c-2.93.085-5.785.948-8.268 2.498a1.8 1.8 0 0 1-.861.197 1.274 1.274 0 0 1-1.184-.714l-2.188-3.945a1.342 1.342 0 0 1-.198-.66c-.015-.453.21-.88.592-1.125a21.571 21.571 0 0 1 5.973-2.802 23.892 23.892 0 0 1 6.834-1 14.393 14.393 0 0 1 10.35 3.57 12.816 12.816 0 0 1 3.73 9.746 12.858 12.858 0 0 1-2.242 7.656 26.526 26.526 0 0 1-7.408 6.408 70.624 70.624 0 0 1-2.636 1.588 49.922 49.922 0 0 0-4.359 2.856 9.726 9.726 0 0 0-2.475 2.749 7.112 7.112 0 0 0-1.005 3.784v1.91h17.148c.375-.015.739.127 1.004.392.256.263.398.616.395.982v4.872c.003.366-.139.719-.395.982a1.348 1.348 0 0 1-1.004.482H36.969a2.768 2.768 0 0 1-2.027-.91z" fill="#FFF" fill-rule="nonzero"/></g></svg>