<svg id="Layer_1" data-name="Layer 1" xmlns="http://www.w3.org/2000/svg" viewBox="0 0 130.09 129.51"><defs><style>.cls-1{fill:#fff;}</style></defs><path class="cls-1" d="M61.54,129.51a7.25,7.25,0,0,0-2.36-.29,66.22,66.22,0,0,1-14.07-2.88A64.83,64.83,0,0,1,10.49,99.89C9.28,98,8.12,96.14,7,94.25a41.5,41.5,0,0,1-3.59-8.39A61.85,61.85,0,0,1,.77,75.12,63.17,63.17,0,0,1,.25,59.76,69,69,0,0,1,2,49.34,65.09,65.09,0,0,1,108,16.18a70.2,70.2,0,0,1,13.7,16.74,54.79,54.79,0,0,1,4.77,10,61.09,61.09,0,0,1,3,12.44,66.26,66.26,0,0,1,.63,10,65.19,65.19,0,0,1-55.21,63.31,44.41,44.41,0,0,1-5.87.61c-.27,0-.56-.08-.79.15Zm49.84-64.82h0a39.1,39.1,0,0,0,0-5.08c-.27-2.1-.7-4.2-1.13-6.28a25.07,25.07,0,0,0-1.91-5.61c-1.39-3-2.65-6.06-4.74-8.7-.72-.91-1.4-1.89-2.07-2.86a36.11,36.11,0,0,0-4.52-5,38.05,38.05,0,0,0-6-4.86,52.29,52.29,0,0,0-8.63-4.48,54.66,54.66,0,0,0-6.9-2.18,30.41,30.41,0,0,0-6.06-1,51.61,51.61,0,0,0-11,.33,20,20,0,0,0-2,.33c-1.85.49-3.72.91-5.55,1.52a50,50,0,0,0-6.3,2.54A48.53,48.53,0,0,0,33,31.32a48.38,48.38,0,0,0-4.58,5.12A37.79,37.79,0,0,0,24,43.38a45.09,45.09,0,0,0-3,7c-.52,1.7-.91,3.41-1.33,5.13a31.27,31.27,0,0,0-.88,5.59,50.88,50.88,0,0,0,.66,13,24.23,24.23,0,0,0,.74,3.19c.64,1.89,1.46,3.72,2.22,5.57a43.39,43.39,0,0,0,4.06,7.46A42.64,42.64,0,0,0,34,99.07a54.32,54.32,0,0,0,6.56,4.9c1.7,1.06,3.49,1.94,5.27,2.83a32.73,32.73,0,0,0,5.15,2c1.53.47,3.1.85,4.68,1.18a46.91,46.91,0,0,0,5.63.84c1.79.17,3.61.08,5.41.07a20.53,20.53,0,0,0,3.33-.14c1.61-.28,3.24-.44,4.85-.84s3-.69,4.41-1.16a48.61,48.61,0,0,0,6.83-2.87,43.86,43.86,0,0,0,9-6c1.45-1.26,2.82-2.59,4.14-4a47.94,47.94,0,0,0,5.82-7.78,41.07,41.07,0,0,0,3.24-6.67,25.91,25.91,0,0,0,1.34-3.89c.26-1.19.64-2.36.86-3.57.3-1.67.65-3.34.82-5C111.49,67.53,111.38,66.11,111.38,64.69Zm14.9-1.62a61.38,61.38,0,0,0-6.2-25.62,5,5,0,0,0-1.37-1.76,5.53,5.53,0,0,0-6.79-.18,5.48,5.48,0,0,0-1.6,6.93,48,48,0,0,1,3.87,11.29,56.83,56.83,0,0,1,1.18,9.89,47.77,47.77,0,0,1-.68,8.94,49.39,49.39,0,0,1-5.09,15.23,50.41,50.41,0,0,1-30.35,24.9A53.79,53.79,0,0,1,66,114.79a45.59,45.59,0,0,1-7.38-.47,49.83,49.83,0,0,1-15-4.39,51.51,51.51,0,0,1-10.9-7A50,50,0,0,1,21.8,90.17a57.06,57.06,0,0,1-4.08-8.44c-1.1-2.76-2.93-4-5.87-3.75a5.26,5.26,0,0,0-4.73,6c.35,2.29,1.51,4.34,2.46,6.42a59,59,0,0,0,8.77,13.68,61.9,61.9,0,0,0,10.58,9.81,61.17,61.17,0,0,0,20.37,9.72,59.41,59.41,0,0,0,12.77,2,61,61,0,0,0,10.63-.42,61.56,61.56,0,0,0,34.63-16.43,59.76,59.76,0,0,0,11.44-14.92A62.22,62.22,0,0,0,126.28,63.07ZM5.08,77.6c.15-.06.21-.06.25-.1a9,9,0,0,1,9.48-3.07c.66.16.78-.15.68-.71A49.41,49.41,0,0,1,15,60.64a53.66,53.66,0,0,1,1.5-8.58,49.74,49.74,0,0,1,8.44-17.31A50.14,50.14,0,0,1,52,16.48a47.54,47.54,0,0,1,10.39-1.69,50.89,50.89,0,0,1,37.6,14,50,50,0,0,1,6,7c.54.74.55.73,1-.1a9.21,9.21,0,0,1,7.79-5c.24,0,.57.11.71-.1s-.13-.5-.28-.72A61.45,61.45,0,0,0,84.65,7,62.92,62.92,0,0,0,65.81,3.76a56.58,56.58,0,0,0-8.63.52A58.73,58.73,0,0,0,43.43,7.73,62.32,62.32,0,0,0,31.24,14a60.82,60.82,0,0,0-17.56,17.7A59.45,59.45,0,0,0,4.94,53.52,62.67,62.67,0,0,0,3.81,63.84,60.24,60.24,0,0,0,5.08,77.6Z"/><path class="cls-1" d="M58.07,78.8a2.5,2.5,0,0,0-2.5,2.64v0a2.56,2.56,0,0,0,2.53,2.66,2.49,2.49,0,0,0,2.52-2.62v0A2.56,2.56,0,0,0,58.07,78.8Z"/><path class="cls-1" d="M71.86,83.11v0c0,.8.71,1.26,1.62,1.26,1.26,0,2.22-.72,2.22-1.78v-.56a5.25,5.25,0,0,0-1.89-.33C72.59,81.73,71.86,82.24,71.86,83.11Z"/><path class="cls-1" d="M65.05,30.29a35,35,0,1,0,35,35A35,35,0,0,0,65.05,30.29ZM51.83,84.74a.93.93,0,0,1-.95,1,1,1,0,0,1-1-1V80.89c0-1.29-.64-2-1.77-2a1.85,1.85,0,0,0-1.87,2.06v3.82a1,1,0,0,1-1.91,0V75a.94.94,0,0,1,1-.94,1,1,0,0,1,1,.94v3.59a3,3,0,0,1,2.59-1.45,2.85,2.85,0,0,1,3,3.18Zm10.69-3.27a4.35,4.35,0,0,1-4.45,4.33,4.3,4.3,0,0,1-4.4-4.29v0a4.43,4.43,0,0,1,8.85,0Zm.27-31.79-11,20.85a2.46,2.46,0,0,1-2.23,1.55A2.18,2.18,0,0,1,47.18,70a3.71,3.71,0,0,1,.41-1.44L57.9,49.46H46.42a2.05,2.05,0,1,1,0-4.1H61.31a2,2,0,0,1,2.13,2.09A5.14,5.14,0,0,1,62.79,49.68Zm5.85,29.37c-1.35.24-2.28,1.28-2.28,3.24v2.45a1,1,0,0,1-1,1,.93.93,0,0,1-.94-1V78.17a.94.94,0,0,1,.94-1,1,1,0,0,1,1,1V79a2.63,2.63,0,0,1,2.09-1.82.88.88,0,0,1,.94.94A.89.89,0,0,1,68.64,79.05Zm8.87,5.73a.91.91,0,0,1-.93.91.86.86,0,0,1-.93-.8v-.32A3.35,3.35,0,0,1,73,85.78,2.65,2.65,0,0,1,70,83.22v0c0-1.8,1.4-2.68,3.43-2.68a7,7,0,0,1,2.23.35v-.2c0-1.18-.72-1.81-2.06-1.81a4.84,4.84,0,0,0-1.84.33,1.08,1.08,0,0,1-.3,0,.79.79,0,0,1-.8-.78.84.84,0,0,1,.52-.76,7.08,7.08,0,0,1,2.67-.48,3.75,3.75,0,0,1,2.75.92,3.43,3.43,0,0,1,.9,2.57Zm8.21-1.62c0,1.74-1.35,2.61-3.08,2.61a5.66,5.66,0,0,1-3.16-1,.72.72,0,0,1-.36-.66.77.77,0,0,1,.77-.78.75.75,0,0,1,.4.12,4.45,4.45,0,0,0,2.4.8c.81,0,1.28-.35,1.28-.9v0c0-.65-.88-.87-1.85-1.16-1.23-.35-2.6-.85-2.6-2.44v0c0-1.58,1.31-2.54,3-2.54a5.76,5.76,0,0,1,2.61.68.8.8,0,0,1,.46.72.77.77,0,0,1-.79.77.79.79,0,0,1-.38-.09,4.43,4.43,0,0,0-1.95-.57c-.74,0-1.16.35-1.16.82v0c0,.62.9.87,1.87,1.18,1.21.38,2.58.93,2.58,2.42Zm-2-11.27h-15a2.24,2.24,0,0,1-2.5-2.2,2.88,2.88,0,0,1,1.21-2.31l8.15-6.93c3.64-3.07,5-4.78,5-7.17a4,4,0,0,0-4.28-4.13c-2.12,0-3.6,1-5.23,3a2.15,2.15,0,0,1-3.75-1.4,2.31,2.31,0,0,1,.53-1.44A10.27,10.27,0,0,1,76.51,45c5.19,0,8.76,3.19,8.76,7.92V53c0,4.17-2.2,6.44-6.9,10.27L72.91,67.8H83.67a2,2,0,1,1,0,4.09Z"/></svg>