<svg id="Layer_1" data-name="Layer 1" xmlns="http://www.w3.org/2000/svg" viewBox="0 0 242.57 241.48"><defs><style>.cls-1{fill:#6110d6;}.cls-2{fill:#fabd26;}.cls-3{fill:#23b0a6;}.cls-4{fill:#dc3236;}.cls-5{fill:#fff;}</style></defs><circle class="cls-1" cx="121.28" cy="121.78" r="65.31"/><path class="cls-2" d="M114.74,241.48c-1.41-.62-2.93-.41-4.39-.55a122.42,122.42,0,0,1-26.24-5.37,120.78,120.78,0,0,1-64.56-49.31c-2.25-3.46-4.41-7-6.56-10.51-3-4.87-4.86-10.27-6.69-15.66a114.72,114.72,0,0,1-4.86-20,118.4,118.4,0,0,1-1-28.65A128.58,128.58,0,0,1,3.63,92,121.29,121.29,0,0,1,75,9.2,119.09,119.09,0,0,1,107.6.77a121.84,121.84,0,0,1,93.79,29.4c10.28,8.94,18.45,19.58,25.54,31.21a101.35,101.35,0,0,1,8.89,18.71,113.08,113.08,0,0,1,5.55,23.19A123.51,123.51,0,0,1,242.55,122,121,121,0,0,1,233,167.3a120.92,120.92,0,0,1-67.11,65.61,122.47,122.47,0,0,1-26.28,7.15,82.09,82.09,0,0,1-11,1.14c-.49,0-1-.15-1.47.28Zm92.93-120.86h-.06c0-3.16.32-6.37-.08-9.47-.51-3.93-1.31-7.83-2.11-11.72A47.1,47.1,0,0,0,201.85,89c-2.59-5.56-4.94-11.29-8.84-16.22-1.33-1.69-2.61-3.52-3.86-5.32a66.78,66.78,0,0,0-8.42-9.29,71,71,0,0,0-11.27-9.06,97.43,97.43,0,0,0-16.09-8.37,104.63,104.63,0,0,0-12.85-4.06,57.89,57.89,0,0,0-11.31-1.84,95.72,95.72,0,0,0-20.58.61c-1.25.21-2.55.29-3.78.62-3.46.92-6.94,1.7-10.35,2.83a90.9,90.9,0,0,0-11.76,4.75A89.76,89.76,0,0,0,61.45,58.4a89.89,89.89,0,0,0-8.54,9.54,71.91,71.91,0,0,0-8.24,13A84.12,84.12,0,0,0,39,94c-1,3.15-1.69,6.35-2.47,9.55A58.06,58.06,0,0,0,34.92,114a95.36,95.36,0,0,0,1.23,24.21,46.87,46.87,0,0,0,1.38,5.93c1.19,3.53,2.72,7,4.14,10.4a80.28,80.28,0,0,0,7.57,13.91,79.44,79.44,0,0,0,14.15,16.26,100,100,0,0,0,12.23,9.14c3.17,2,6.51,3.62,9.83,5.28a61.64,61.64,0,0,0,9.6,3.67c2.86.87,5.79,1.59,8.74,2.21a91.06,91.06,0,0,0,10.48,1.57c3.34.3,6.73.14,10.1.12a37.62,37.62,0,0,0,6.2-.26c3-.52,6.05-.81,9-1.56,2.76-.68,5.55-1.28,8.24-2.16a90.3,90.3,0,0,0,12.73-5.36,81.84,81.84,0,0,0,16.8-11.17c2.69-2.34,5.24-4.83,7.71-7.43A91.09,91.09,0,0,0,196,164.26a75.62,75.62,0,0,0,6-12.45,47.31,47.31,0,0,0,2.5-7.24c.49-2.23,1.21-4.4,1.61-6.67.56-3.11,1.22-6.22,1.53-9.36C207.88,125.92,207.67,123.26,207.67,120.62Zm27.78-3a114.12,114.12,0,0,0-11.56-47.75,9.17,9.17,0,0,0-2.55-3.29c-3.81-3-9.22-3.13-12.66-.34a10.22,10.22,0,0,0-3,12.93,90,90,0,0,1,7.22,21,107.06,107.06,0,0,1,2.18,18.44,87.07,87.07,0,0,1-1.26,16.68,92.2,92.2,0,0,1-9.48,28.39,94,94,0,0,1-56.6,46.43A100.69,100.69,0,0,1,123,214a84.45,84.45,0,0,1-13.76-.88,92.67,92.67,0,0,1-28-8.19A94.75,94.75,0,0,1,61,192a93,93,0,0,1-20.31-23.84A105.79,105.79,0,0,1,33,152.38c-2-5.14-5.46-7.44-10.94-7a9.81,9.81,0,0,0-8.82,11.23c.64,4.28,2.8,8.09,4.59,12a110.4,110.4,0,0,0,16.34,25.5,114.63,114.63,0,0,0,57.7,36.42,110.68,110.68,0,0,0,23.82,3.74,113.33,113.33,0,0,0,19.82-.79,114.69,114.69,0,0,0,64.57-30.63A110.87,110.87,0,0,0,221.45,175C230.66,158,235.46,139.86,235.45,117.59ZM9.48,144.7c.27-.12.39-.13.45-.2,4.77-5.4,10.63-7.42,17.69-5.72,1.23.3,1.44-.28,1.26-1.33a91.42,91.42,0,0,1-1-24.39,98.87,98.87,0,0,1,2.79-16A92.69,92.69,0,0,1,46.45,64.79,93.68,93.68,0,0,1,96.88,30.72a89.7,89.7,0,0,1,19.38-3.15,94.88,94.88,0,0,1,70.1,26.09,92.82,92.82,0,0,1,11.23,13c1,1.38,1,1.36,1.84-.19,3.1-5.82,8-8.81,14.53-9.41.45,0,1.07.21,1.32-.19s-.24-.92-.52-1.33a114.4,114.4,0,0,0-56.92-42.47A118,118,0,0,0,122.7,7a105.57,105.57,0,0,0-16.09,1A110,110,0,0,0,81,14.41,115.19,115.19,0,0,0,58.26,26.05a113.06,113.06,0,0,0-32.75,33A111.08,111.08,0,0,0,9.2,99.79,118.33,118.33,0,0,0,7.11,119,111.8,111.8,0,0,0,9.48,144.7Z"/><path class="cls-3" d="M207.67,120.62c0,2.64.21,5.3,0,7.92-.31,3.14-1,6.25-1.53,9.36-.4,2.27-1.12,4.44-1.61,6.67a47.31,47.31,0,0,1-2.5,7.24,75.62,75.62,0,0,1-6,12.45,91.09,91.09,0,0,1-10.86,14.5c-2.47,2.6-5,5.09-7.71,7.43a81.84,81.84,0,0,1-16.8,11.17,90.3,90.3,0,0,1-12.73,5.36c-2.69.88-5.48,1.48-8.24,2.16-3,.75-6,1-9,1.56a37.62,37.62,0,0,1-6.2.26c-3.37,0-6.76.18-10.1-.12A91.06,91.06,0,0,1,103.79,205c-3-.62-5.88-1.34-8.74-2.21a61.64,61.64,0,0,1-9.6-3.67c-3.32-1.66-6.66-3.3-9.83-5.28a100,100,0,0,1-12.23-9.14,79.44,79.44,0,0,1-14.15-16.26,80.28,80.28,0,0,1-7.57-13.91c-1.42-3.45-3-6.87-4.14-10.4a46.87,46.87,0,0,1-1.38-5.93A95.36,95.36,0,0,1,34.92,114a58.06,58.06,0,0,1,1.65-10.43c.78-3.2,1.5-6.4,2.47-9.55a84.12,84.12,0,0,1,5.63-13.13,71.91,71.91,0,0,1,8.24-13,89.89,89.89,0,0,1,8.54-9.54A89.76,89.76,0,0,1,82.74,43.62,90.9,90.9,0,0,1,94.5,38.87c3.41-1.13,6.89-1.91,10.35-2.83,1.23-.33,2.53-.41,3.78-.62a95.72,95.72,0,0,1,20.58-.61,57.89,57.89,0,0,1,11.31,1.84,104.63,104.63,0,0,1,12.85,4.06,97.43,97.43,0,0,1,16.09,8.37,71,71,0,0,1,11.27,9.06,66.78,66.78,0,0,1,8.42,9.29c1.25,1.8,2.53,3.63,3.86,5.32,3.9,4.93,6.25,10.66,8.84,16.22a47.1,47.1,0,0,1,3.57,10.46c.8,3.89,1.6,7.79,2.11,11.72.4,3.1.08,6.31.08,9.47Zm-148.08.95c-.55,35.08,28.65,62.86,62.05,63.13,35.26.29,63.45-28.35,63.46-62.12,0-35.18-27.54-63.55-61.67-63.72-17.6-.09-32.69,5.84-45.21,18.07S59.88,104.23,59.59,121.57Z"/><path class="cls-4" d="M235.45,117.59c0,22.27-4.79,40.42-14,57.43a110.87,110.87,0,0,1-21.33,27.82,114.78,114.78,0,0,1-84.39,31.42,110.68,110.68,0,0,1-23.82-3.74,114.63,114.63,0,0,1-57.7-36.42,110.4,110.4,0,0,1-16.34-25.5c-1.79-3.89-4-7.7-4.59-12a9.81,9.81,0,0,1,8.82-11.23c5.48-.45,8.9,1.85,10.94,7a105.79,105.79,0,0,0,7.61,15.75A93,93,0,0,0,61,192a94.75,94.75,0,0,0,20.31,13,92.67,92.67,0,0,0,28,8.19A84.45,84.45,0,0,0,123,214a100.69,100.69,0,0,0,24.72-3.91,94.06,94.06,0,0,0,56.6-46.43,92.2,92.2,0,0,0,9.48-28.39,87.07,87.07,0,0,0,1.26-16.68,107.06,107.06,0,0,0-2.18-18.44,90,90,0,0,0-7.22-21,10.22,10.22,0,0,1,3-12.93c3.44-2.79,8.85-2.67,12.66.34a9.17,9.17,0,0,1,2.55,3.29,114.12,114.12,0,0,1,11.56,47.75Z"/><path class="cls-4" d="M9.48,144.7A111.8,111.8,0,0,1,7.11,119,118.33,118.33,0,0,1,9.2,99.79,111.08,111.08,0,0,1,25.51,59.05a113.06,113.06,0,0,1,32.75-33A115.19,115.19,0,0,1,81,14.41,110,110,0,0,1,106.61,8,105.57,105.57,0,0,1,122.7,7a118,118,0,0,1,35.14,6.07,114.4,114.4,0,0,1,56.92,42.47c.28.41.84.82.52,1.33s-.87.14-1.32.19c-6.48.6-11.43,3.59-14.53,9.41-.82,1.55-.84,1.57-1.84.19a92.82,92.82,0,0,0-11.23-13,94.88,94.88,0,0,0-70.1-26.09,89.7,89.7,0,0,0-19.38,3.15A93.81,93.81,0,0,0,30.71,97.07a98.87,98.87,0,0,0-2.79,16,91.42,91.42,0,0,0,1,24.39c.18,1.05,0,1.63-1.26,1.33-7.06-1.7-12.92.32-17.69,5.72C9.87,144.57,9.75,144.58,9.48,144.7Z"/><path class="cls-5" d="M88.74,127.83,108,92.21H86.55a3.82,3.82,0,0,1,0-7.63h27.77a3.63,3.63,0,0,1,4,3.89,9.75,9.75,0,0,1-1.2,4.17L96.59,131.5c-1.06,2-2.41,2.9-4.17,2.9-2.34,0-4.46-1.41-4.46-3.89A6.82,6.82,0,0,1,88.74,127.83Z"/><path class="cls-5" d="M125.56,125.64l15.19-12.93C147.53,107,150,103.8,150,99.35c0-4.88-3.47-7.7-8-7.7-4,0-6.71,1.84-9.75,5.51a4,4,0,0,1-7-2.61,4.34,4.34,0,0,1,1-2.69c4-5,8.62-8,16.39-8,9.68,0,16.32,5.93,16.32,14.76v.14c0,7.78-4.1,12-12.86,19.15L136,126.41H156a3.82,3.82,0,1,1,0,7.64H128c-2.68,0-4.66-1.56-4.66-4.1A5.37,5.37,0,0,1,125.56,125.64Z"/><path class="cls-5" d="M82.74,139.83a1.74,1.74,0,0,1,1.76-1.76,1.77,1.77,0,0,1,1.78,1.76v6.69a5.62,5.62,0,0,1,4.84-2.7c3.49,0,5.51,2.34,5.51,5.92V158a1.73,1.73,0,0,1-1.76,1.76A1.75,1.75,0,0,1,93.09,158v-7.18c0-2.41-1.21-3.79-3.32-3.79s-3.49,1.44-3.49,3.85V158a1.77,1.77,0,0,1-3.54,0Z"/><path class="cls-5" d="M100.07,152v-.06a8.25,8.25,0,0,1,16.5-.06v.06a8.08,8.08,0,0,1-8.29,8.06A8,8,0,0,1,100.07,152Zm13,0v-.06a4.78,4.78,0,0,0-4.75-5,4.65,4.65,0,0,0-4.67,4.92v.06a4.78,4.78,0,0,0,4.73,5A4.65,4.65,0,0,0,113,152Z"/><path class="cls-5" d="M120.18,145.75a1.75,1.75,0,0,1,1.76-1.78,1.77,1.77,0,0,1,1.79,1.78v1.59c.82-1.94,2.35-3.4,3.9-3.4a1.64,1.64,0,0,1,1.76,1.76,1.68,1.68,0,0,1-1.41,1.7c-2.52.44-4.25,2.37-4.25,6V158a1.77,1.77,0,0,1-1.79,1.76,1.75,1.75,0,0,1-1.76-1.76Z"/><path class="cls-5" d="M130.54,155.17v-.06c0-3.35,2.61-5,6.39-5a12.92,12.92,0,0,1,4.16.65v-.38c0-2.2-1.35-3.38-3.84-3.38a9.22,9.22,0,0,0-3.43.62,2,2,0,0,1-.56.09,1.48,1.48,0,0,1-1.49-1.47,1.57,1.57,0,0,1,1-1.41,13.48,13.48,0,0,1,5-.9,6.9,6.9,0,0,1,5.13,1.73,6.42,6.42,0,0,1,1.67,4.78v7.62a1.69,1.69,0,0,1-1.73,1.7,1.61,1.61,0,0,1-1.73-1.5v-.58a6.29,6.29,0,0,1-5,2.26C133.12,160,130.54,158.27,130.54,155.17Zm10.61-1.12V153a9.66,9.66,0,0,0-3.52-.62c-2.29,0-3.63,1-3.63,2.58V155c0,1.5,1.31,2.35,3,2.35C139.36,157.37,141.15,156,141.15,154.05Z"/><path class="cls-5" d="M148.19,158.07a1.38,1.38,0,0,1-.68-1.23A1.43,1.43,0,0,1,149,155.4a1.51,1.51,0,0,1,.76.21,8.23,8.23,0,0,0,4.46,1.49c1.53,0,2.41-.64,2.41-1.67v-.06c0-1.2-1.65-1.61-3.47-2.17-2.28-.64-4.83-1.58-4.83-4.54v-.06c0-2.93,2.43-4.72,5.51-4.72a10.69,10.69,0,0,1,4.87,1.26,1.49,1.49,0,0,1,.85,1.35,1.43,1.43,0,0,1-1.47,1.43,1.35,1.35,0,0,1-.7-.17,8.38,8.38,0,0,0-3.64-1.06c-1.38,0-2.17.65-2.17,1.53v.06c0,1.14,1.67,1.61,3.49,2.19,2.26.71,4.81,1.73,4.81,4.52v.06c0,3.25-2.52,4.87-5.75,4.87A10.6,10.6,0,0,1,148.19,158.07Z"/></svg>