<svg width="42" height="41" viewBox="0 0 42 41" xmlns="http://www.w3.org/2000/svg"><title>Group</title><g fill="#FFF"><path d="M30.653 11.367c7.187.221 6.296 1.21 6.018-5.656-1.495 2.192-2.632 1.155-4.01.033C25.61.034 15.478.183 8.597 6.1a18.751 18.751 0 0 0-3.942 23.726c4.599 7.82 14.138 11.234 22.66 8.107 8.63-3.107 13.733-12.008 12.05-21.019-.057-.306-.118-.617-.166-.942-.075-.533-.292-1.193.472-1.343.764-.151.858.471 1 1.041a19.26 19.26 0 0 1 .316 7.715 20.339 20.339 0 0 1-17.77 17.124 20.347 20.347 0 0 1-21.219-12.61 20.283 20.283 0 0 1 6.44-23.687 20.32 20.32 0 0 1 24.563-.16c1.467 1.122 2.307 1.099 3.349-.273.316-.41.721-.975 1.34-.787.782.24.617.99.622 1.598 0 2.28-.038 4.557 0 6.833.028 1.174-.363 1.744-1.604 1.725-2.358-.038-4.716 0-7.074 0-.547 0-1.193.038-1.415-.575-.222-.613.255-1.07.693-1.376 2.189-1.527.967-2.333-.575-3.247a14.468 14.468 0 0 0-17.952 2.382 14.44 14.44 0 0 0-1.546 18.03 14.466 14.466 0 0 0 17.286 5.397 14.447 14.447 0 0 0 9.003-15.7.697.697 0 0 1-.037-.231c.24-1.07-1.415-2.795 0-3.026 1.64-.264 1.344 1.97 1.551 3.12 1.292 7.125-2.98 14.472-9.861 17.21A15.99 15.99 0 0 1 7.602 29.27 15.962 15.962 0 0 1 9.256 9.296 15.992 15.992 0 0 1 29.14 6.663c.537.326 1.057.68 1.556 1.06 1.283.948 2.778 1.881-.042 3.644z"/><path d="M9.727 20.424c.528.08 1.363-.108 1.382.792.019.9-.825.778-1.415.801-.59.024-1.415 0-1.33-.9.047-.679.726-.693 1.363-.693zM20.333 10.32c-.844-.33-.702-1.079-.679-1.739 0-.556.189-1.201.882-1.046.887.198.722 1.037.698 1.706-.014.566-.15 1.065-.9 1.08zm14.05 11.004c-.387.853-1.146.707-1.83.684-.599 0-1.183-.274-.943-.985.24-.712 1.028-.594 1.632-.575.604.019 1.122.127 1.141.876zm-13.919 9.28c.839.174.83.853.797 1.46-.033.608 0 1.438-.944 1.301-.806-.127-.632-.942-.679-1.55-.047-.608.128-1.08.826-1.211zm-6.12-2.55a.391.391 0 0 1-.122-.283.617.617 0 0 1 .042-.179l4.551-11.532h-5.584a.41.41 0 0 1-.424-.424v-1.498a.41.41 0 0 1 .424-.425h7.244a.868.868 0 0 1 .873.868v1.413L16.73 27.776a.674.674 0 0 1-.241.297.655.655 0 0 1-.363.108h-1.462a.42.42 0 0 1-.32-.127zm7.895-.047a.707.707 0 0 1-.217-.514v-1.385a5.223 5.223 0 0 1 .368-2.163 3.573 3.573 0 0 1 1.127-1.353c.83-.586 1.69-1.13 2.575-1.63a2.68 2.68 0 0 0 .91-.806 1.76 1.76 0 0 0 .288-.985c.02-.437-.152-.86-.472-1.16a1.887 1.887 0 0 0-1.33-.438c-.77.023-1.52.25-2.174.66a.472.472 0 0 1-.226.052.335.335 0 0 1-.311-.189l-.576-1.041a.353.353 0 0 1-.052-.175.34.34 0 0 1 .156-.297 5.661 5.661 0 0 1 1.57-.74 6.258 6.258 0 0 1 1.797-.263 3.775 3.775 0 0 1 2.722.942 3.392 3.392 0 0 1 .98 2.573 3.405 3.405 0 0 1-.589 2.022 6.983 6.983 0 0 1-1.948 1.692c-.278.174-.509.316-.693.42-.395.23-.777.482-1.146.753a2.564 2.564 0 0 0-.65.726 1.88 1.88 0 0 0-.265 1v.503h4.509a.354.354 0 0 1 .368.363v1.287c0 .096-.037.19-.104.259a.354.354 0 0 1-.264.127h-5.82a.727.727 0 0 1-.533-.24z"/></g></svg>