<svg width="192" height="512" viewBox="0 0 192 512" xmlns="http://www.w3.org/2000/svg"><title>Male 3</title><g fill="none"><path d="M32 64C32 28.654 60.654 0 96 0c35.346 0 64 28.654 64 64 0 35.346-28.654 64-64 64-35.346 0-64-28.654-64-64z" fill="#22B1A7"/><path d="M48 144h11.36a87.91 87.91 0 0 0 73.28 0H144c26.51 0 48 21.49 48 48v136c0 13.255-10.745 24-24 24h-16v136c0 13.255-10.745 24-24 24H64c-13.255 0-24-10.745-24-24V352H24c-13.255 0-24-10.745-24-24V192c0-26.51 21.49-48 48-48z" fill="#22B1A7"/></g></svg>
