<svg width="161" height="225" viewBox="0 0 161 225" xmlns="http://www.w3.org/2000/svg"><title>Group 18</title><g fill="none" fill-rule="evenodd"><path fill="#F2F2F2" d="M0 0h161v225H0z"/><g transform="translate(49 81)"><path d="M13 0H3.25A3.25 3.25 0 0 0 0 3.25V13m50 50h9.75A3.25 3.25 0 0 0 63 59.75V50m0-37V3.25A3.25 3.25 0 0 0 59.75 0H50M0 50v9.75A3.25 3.25 0 0 0 3.25 63H13" stroke="#212121" stroke-width="4" stroke-linecap="round" stroke-linejoin="round"/><path d="M54 56.753v-3.086C54 44.462 46.836 37 38 37c-8.837 0-16 7.462-16 16.667v3.086c0 .136.106.247.237.247h31.526c.13 0 .237-.11.237-.247z" fill="#646263" fill-rule="nonzero"/><path d="M48 49.753v-3.086C48 37.462 41.06 30 32.5 30 23.94 30 17 37.462 17 46.667v3.086c0 .136.103.247.23.247h30.54c.127 0 .23-.11.23-.247z" stroke="#212121" stroke-width="4" stroke-linecap="round" stroke-linejoin="round"/><circle fill="#BEBEBE" fill-rule="nonzero" cx="38" cy="29" r="10"/><circle stroke="#212121" stroke-width="4" stroke-linecap="round" cx="32" cy="23" r="10"/></g></g></svg>