<svg xmlns="http://www.w3.org/2000/svg" viewBox="0 0 407.76 75.77"><defs><style>.cls-1{fill:#03f;}</style></defs><title>Logo_Header</title><g id="Layer_2" data-name="Layer 2"><g id="Vectors"><g id="Layer_107" data-name="Layer 107"><path class="cls-1" d="M92.36,58.67V72.52C61.63,61.27,30.75,83.78,0,72.52V58.67C30.71,69.91,61.63,47.42,92.36,58.67ZM0,31V44.81c30.75,11.26,61.63-11.25,92.36,0V31C61.61,19.7,30.73,42.21,0,31ZM0,3.25V17.1c30.75,11.26,61.63-11.25,92.36,0V3.25C61.61-8,30.73,14.5,0,3.25Z"/><path d="M147.91,23.15a1.42,1.42,0,0,0-1.32-.9h-6.17a1.4,1.4,0,0,0-1.33.93L126.67,57a.91.91,0,0,0,.85,1.22h5.06a1.27,1.27,0,0,0,1.19-.84L136,51h15.5l2.27,6.36a1.25,1.25,0,0,0,1.19.83h5.38a.91.91,0,0,0,.85-1.24Zm1.14,21.62a.48.48,0,0,1-.38.2h-10a.48.48,0,0,1-.38-.2.52.52,0,0,1-.06-.42l4.91-14a.41.41,0,0,1,.39-.28h0a.43.43,0,0,1,.4.27l5.12,14A.45.45,0,0,1,149.05,44.77ZM268.48,17.33V15.2a.91.91,0,0,1,.73-.9L279,12.39a1.27,1.27,0,0,1,1.42.79L281.88,17a.91.91,0,0,1-.85,1.23H269.39A.9.9,0,0,1,268.48,17.33ZM179,22.25H166.58a1.07,1.07,0,0,0-1.07,1.08V57.15a1.07,1.07,0,0,0,1.07,1.07h4.95a1.07,1.07,0,0,0,1.07-1.07v-9H179a13,13,0,1,0,0-25.92Zm-1.43,20.1h-4.52a.46.46,0,0,1-.46-.46V28.53a.46.46,0,0,1,.46-.46h4.52a7.14,7.14,0,0,1,0,14.28ZM389.24,21.76a18.52,18.52,0,1,0,18.52,18.51A18.51,18.51,0,0,0,389.24,21.76Zm0,30.2a11.69,11.69,0,1,1,11.69-11.69A11.69,11.69,0,0,1,389.24,52ZM314.86,23.48,301.92,57.31a1.42,1.42,0,0,1-1.33.91h-6.23a1.42,1.42,0,0,1-1.33-.91L280.09,23.48a.91.91,0,0,1,.85-1.23h5.56a1.25,1.25,0,0,1,1.19.85l9.11,26.18a.51.51,0,0,0,.47.34h.41a.51.51,0,0,0,.47-.34l9.11-26.18a1.25,1.25,0,0,1,1.19-.85H314A.91.91,0,0,1,314.86,23.48Zm-39.29-.15V57.15a1.07,1.07,0,0,1-1.07,1.07h-4.95a1.07,1.07,0,0,1-1.07-1.07V23.33a1.07,1.07,0,0,1,1.07-1.08h4.95A1.07,1.07,0,0,1,275.57,23.33Zm62.57,16.94A11.69,11.69,0,0,0,360,46a1.27,1.27,0,0,1,1.11-.65h5a1.11,1.11,0,0,1,.9.47,1.08,1.08,0,0,1,.12,1,18.51,18.51,0,1,1,0-13.09,1.1,1.1,0,0,1-1,1.47h-5a1.27,1.27,0,0,1-1.11-.65,11.68,11.68,0,0,0-21.88,5.71ZM326,23.33V57.15a1.07,1.07,0,0,1-1.08,1.07H320a1.07,1.07,0,0,1-1.08-1.07V23.33A1.08,1.08,0,0,1,320,22.25h4.94A1.08,1.08,0,0,1,326,23.33ZM210.79,22.25H198.36a1.07,1.07,0,0,0-1.07,1.08V57.15a1.07,1.07,0,0,0,1.07,1.07h4.95a1.07,1.07,0,0,0,1.07-1.07v-9h6.41a13,13,0,1,0,0-25.92Zm-1.43,20.1h-4.52a.46.46,0,0,1-.46-.46V28.53a.46.46,0,0,1,.46-.46h4.52a7.14,7.14,0,0,1,0,14.28Zm24.41-2.08A11.69,11.69,0,0,0,255.64,46a1.27,1.27,0,0,1,1.11-.65h5a1.08,1.08,0,0,1,1,1.47,18.51,18.51,0,1,1,0-13.09,1.1,1.1,0,0,1-1,1.47h-5a1.27,1.27,0,0,1-1.11-.65,11.68,11.68,0,0,0-21.88,5.71Z"/></g></g></g></svg>