<?xml version="1.0" encoding="utf-8"?>
<svg version="1.1" xmlns:xlink="http://www.w3.org/1999/xlink" width="24px" height="24px" xmlns="http://www.w3.org/2000/svg">
  <g transform="matrix(1 0 0 1 -979 -99 )">
    <path d="M 14.578125 13.9612403100775  C 14.984375 13.4599483204134  15.2552083333333 13.2093023255814  15.390625 13.2093023255814  C 15.5260416666667 13.2093023255814  16.0338541666667 13.4366925064599  16.9140625 13.8914728682171  C 17.7942708333333 14.3462532299742  18.2604166666667 14.6201550387597  18.3125 14.7131782945736  C 18.3333333333333 14.7648578811369  18.34375 14.8423772609819  18.34375 14.9457364341085  C 18.34375 15.2868217054264  18.2552083333333 15.6795865633075  18.078125 16.1240310077519  C 17.9114583333333 16.5271317829457  17.5416666666667 16.8656330749354  16.96875 17.1395348837209  C 16.3958333333333 17.4134366925065  15.8645833333333 17.5503875968992  15.375 17.5503875968992  C 14.78125 17.5503875968992  13.7916666666667 17.2299741602067  12.40625 16.5891472868217  C 11.3854166666667 16.1240310077519  10.5 15.5142118863049  9.75 14.7596899224806  C 9 14.0051679586563  8.22916666666667 13.0490956072351  7.4375 11.8914728682171  C 6.6875 10.7855297157623  6.31770833333333 9.78294573643411  6.328125 8.88372093023256  L 6.328125 8.75968992248062  C 6.359375 7.81912144702842  6.74479166666667 7.00258397932816  7.484375 6.31007751937984  C 7.734375 6.08268733850129  8.00520833333333 5.96899224806201  8.296875 5.96899224806201  C 8.359375 5.96899224806201  8.453125 5.97674418604651  8.578125 5.9922480620155  C 8.703125 6.0077519379845  8.80208333333333 6.01550387596899  8.875 6.01550387596899  C 9.07291666666667 6.01550387596899  9.2109375 6.04909560723514  9.2890625 6.11627906976744  C 9.3671875 6.18346253229974  9.44791666666667 6.32558139534884  9.53125 6.54263565891473  C 9.61458333333333 6.74935400516796  9.78645833333333 7.20413436692506  10.046875 7.90697674418605  C 10.3072916666667 8.60981912144703  10.4375 8.99741602067183  10.4375 9.06976744186047  C 10.4375 9.28682170542636  10.2578125 9.58397932816537  9.8984375 9.96124031007752  C 9.5390625 10.3385012919897  9.359375 10.578811369509  9.359375 10.6821705426357  C 9.359375 10.7545219638243  9.38541666666667 10.8320413436692  9.4375 10.9147286821705  C 9.79166666666667 11.6692506459948  10.3229166666667 12.3772609819121  11.03125 13.0387596899225  C 11.6145833333333 13.5865633074935  12.4010416666667 14.1085271317829  13.390625 14.6046511627907  C 13.515625 14.6770025839793  13.6302083333333 14.7131782945736  13.734375 14.7131782945736  C 13.890625 14.7131782945736  14.171875 14.4625322997416  14.578125 13.9612403100775  Z M 6.828125 19.8139534883721  C 8.47395833333333 20.8888888888889  10.2708333333333 21.4263565891473  12.21875 21.4263565891473  C 13.5416666666667 21.4263565891473  14.8098958333333 21.1679586563307  16.0234375 20.6511627906977  C 17.2369791666667 20.1343669250646  18.28125 19.4418604651163  19.15625 18.5736434108527  C 20.03125 17.7054263565891  20.7291666666667 16.6692506459948  21.25 15.4651162790698  C 21.7708333333333 14.2609819121447  22.03125 13.0025839793282  22.03125 11.6899224806202  C 22.03125 10.3772609819121  21.7708333333333 9.11886304909561  21.25 7.91472868217054  C 20.7291666666667 6.71059431524548  20.03125 5.67441860465116  19.15625 4.8062015503876  C 18.28125 3.93798449612403  17.2369791666667 3.24547803617571  16.0234375 2.72868217054264  C 14.8098958333333 2.21188630490956  13.5416666666667 1.95348837209302  12.21875 1.95348837209302  C 10.8958333333333 1.95348837209302  9.62760416666667 2.21188630490956  8.4140625 2.72868217054264  C 7.20052083333333 3.24547803617571  6.15625 3.93798449612403  5.28125 4.8062015503876  C 4.40625 5.67441860465116  3.70833333333333 6.71059431524548  3.1875 7.91472868217054  C 2.66666666666667 9.11886304909561  2.40625 10.3772609819121  2.40625 11.6899224806202  C 2.40625 13.7881136950904  3.03125 15.6899224806202  4.28125 17.3953488372093  L 3.046875 21.0077519379845  L 6.828125 19.8139534883721  Z M 7.6484375 0.930232558139534  C 9.1015625 0.310077519379844  10.625 0  12.21875 0  C 13.8125 0  15.3359375 0.310077519379844  16.7890625 0.930232558139534  C 18.2421875 1.55038759689922  19.4947916666667 2.38242894056847  20.546875 3.42635658914729  C 21.5989583333333 4.4702842377261  22.4375 5.71317829457364  23.0625 7.15503875968992  C 23.6875 8.5968992248062  24 10.1085271317829  24 11.6899224806202  C 24 13.2713178294574  23.6875 14.7829457364341  23.0625 16.2248062015504  C 22.4375 17.6666666666667  21.5989583333333 18.9095607235142  20.546875 19.953488372093  C 19.4947916666667 20.9974160206718  18.2421875 21.8294573643411  16.7890625 22.4496124031008  C 15.3359375 23.0697674418605  13.8125 23.3798449612403  12.21875 23.3798449612403  C 10.1875 23.3798449612403  8.28645833333333 22.8940568475452  6.515625 21.922480620155  L 0 24  L 2.125 17.7209302325581  C 1 15.8811369509044  0.4375 13.8708010335917  0.4375 11.6899224806202  C 0.4375 10.1085271317829  0.75 8.5968992248062  1.375 7.15503875968992  C 2 5.71317829457364  2.83854166666667 4.4702842377261  3.890625 3.42635658914729  C 4.94270833333333 2.38242894056847  6.1953125 1.55038759689922  7.6484375 0.930232558139534  Z " fill-rule="nonzero" fill="#ffffff" stroke="none" transform="matrix(1 0 0 1 979 99 )" />
  </g>
</svg>