<?xml version="1.0" encoding="utf-8"?>
<svg version="1.1" xmlns:xlink="http://www.w3.org/1999/xlink" width="20px" height="21px" xmlns="http://www.w3.org/2000/svg">
  <g transform="matrix(1 0 0 1 -60 -1123 )">
    <path d="M 0.306737714426399 7.44983747199052  C 0.381721753716863 7.48743380999871  0.423449098897981 7.56250130397954  0.415103629861757 7.65851592524129  C 0.406758160825534 7.76700702271219  0.456830975042875 7.84628897855632  0.515249258296439 7.92974366891855  C 0.556976603477557 7.99233468669023  0.607049417694898 8.06327117349813  0.615394886731122 8.13420766030603  C 0.627913090285457 8.25104422681316  0.690504108057133 8.28025336843994  0.786477001973703 8.3011170410305  C 0.894968099444609 8.32615344813917  0.982595524324956 8.38457173139273  1.01180466595174 8.50140829789986  C 1.04101380757852 8.60989939537077  1.09943209083208 8.63910853699755  1.20792318830299 8.59738119181643  C 1.42073264872669 8.51809923597231  1.63354210915039 8.43047181109196  1.84635156957409 8.34701712072973  C 1.84217883505598 8.3720535278384  1.83383336601975 8.4096081385014  1.82966063150164 8.44716274916441  C 1.81296969342919 8.59738119181643  1.78793328632052 8.74759963446846  1.79210602083864 8.89364534260237  C 1.79627875535675 9.0480365197725  1.89225164927332 9.14400941368907  2.03412462288912 9.14400941368907  C 2.30952510108449 9.14400941368907  2.58075284476176 9.13983667917096  2.85615332295713 9.13149121013474  C 2.98968082753671 9.12731847561663  3.10651739404384 9.07724566139928  3.1983175534423 8.97292729844649  C 3.21083575699663 8.96040909489215  3.22752669506908 8.9395454223016  3.24004489862341 8.94371815681971  C 3.40278154482977 8.97292729844649  3.49040896971012 8.86026346645747  3.5905545981448 8.7642905725409  C 3.70321843013382 8.65579947507  3.83257320019528 8.58069025374398  3.99948258091975 8.5848629882621  C 4.10380094387255 8.58903572278021  4.21229204134345 8.55565384663532  4.33330134236869 8.53896290856287  C 4.33330134236869 8.53896290856287  4.34999228044114 8.55982658115343  4.36251048399548 8.5848629882621  C 4.42092876724904 8.67666314766056  4.44596517435771 8.76011783802279  4.37502868754981 8.86443620097558  C 4.34164681140492 8.91868174971104  4.35833774947736 9.00630917459138  4.35416501495925 9.08141839591739  C 4.34999228044114 9.13566394465285  4.36251048399548 9.19825496242452  4.34581954592303 9.24832777664187  C 4.32078313881436 9.32760973248599  4.31661040429625 9.39854621929389  4.34999228044114 9.47782817513801  C 4.4417924398396 9.67811943200738  4.5836654134554 9.83668334369562  4.75057479417987 9.97438358279331  C 4.84237495357833 10.0494928041193  4.94252058201301 10.074529211228  5.05935714852014 10.0536655386374  C 5.09691175918315 10.0494928041193  5.14281183888237 10.0703564767099  5.18036644954538 10.0912201493004  C 5.23043926376272 10.1204292909272  5.26799387442573 10.1788475741808  5.31806668864307 10.1913657777351  C 5.39317590996908 10.2122294503257  5.44324872418642 10.2456113264706  5.48914880388565 10.299856875206  C 5.55173982165733 10.374966096532  5.63102177750145 10.4250389107494  5.73116740593613 10.4083479726769  C 5.80627662726214 10.3958297691226  5.83965850340704 10.4166934417132  5.8605221759976 10.4918026630392  C 5.90642225569683 10.6503665747274  6.0023951496134 10.6962666544266  6.16513179581975 10.6587120437636  C 6.21103187551898 10.6461938402093  6.27362289329066 10.6587120437636  6.31952297298989 10.6795757163542  C 6.42384133594268 10.7254757960534  6.51981422985925 10.7880668138251  6.61995985829394 10.8339668935243  C 6.68672361058372 10.8631760351511  6.72010548672862 10.9049033803322  6.72845095576484 10.971667132622  C 6.74096915931918 11.0676400265386  6.7493146283554 11.159440185937  6.7493146283554 11.2554130798536  C 6.74514189383729 11.3847678499151  6.76183283190974 11.5182953544947  6.64916899992072 11.6226137174475  C 6.63247806184827 11.6351319210018  6.62413259281205 11.6685555244919  6.62413259281205 11.6894191970824  C 6.63665079636638 11.7979102945533  6.65751446895694 11.9022286575061  6.74514189383729 11.977296151487  C 6.8911876019712 12.1024781870303  7.06226971721378 12.1775874083563  7.25421550504692 12.1942783464288  C 7.33767019540916 12.202623815465  7.4252976202895 12.1942783464288  7.51292504516985 12.1984510809469  C 7.62558887715887 12.2026655428102  7.66314348782187 12.2568693642004  7.63393434619509 12.3611877271532  C 7.62558887715887 12.3862241342619  7.61724340812264 12.4154332758887  7.60472520456831 12.4404696829974  C 7.4962341070974 12.6616246124573  7.56299785938719 12.8076703205912  7.79249825788334 12.8786068073991  C 7.83839833758257 12.8952560181264  7.90516208987235 12.9453705596889  7.90516208987235 12.9787107084886  C 7.91350755890858 13.1539655582493  7.98861678023459 13.3417386115643  7.8509165411369 13.5045169851159  C 7.83422560306445 13.5211661958431  7.81753466499201 13.5420298684337  7.81336193047389 13.5671080028875  C 7.80501646143767 13.6130080825868  7.78832552336523 13.6714263658403  7.80501646143767 13.7089392491581  C 7.82588013402823 13.7548810562026  7.82588013402823 13.779875735966  7.79667099240145 13.8174720739742  C 7.73407997462977 13.9009267643365  7.69235262944865 13.9843814546987  7.68400716041243 14.0928725521696  C 7.6714889568581 14.3140274816295  7.64227981523131 14.5351824110895  7.62558887715887 14.7563373405494  C 7.61724340812265 14.8648284380203  7.61307067360453 14.9774922700093  7.61724340812265 15.085941640135  C 7.62141614264076 15.1777417995335  7.6714889568581 15.2570654827228  7.76328911625655 15.2779291553133  C 7.88847115179991 15.302965562422  8.01782592186137 15.3196565004945  8.14300795740473 15.3196565004945  C 8.48099945337178 15.3196565004945  8.73136352445848 15.6200516584533  8.67294524120492 15.9538704199023  C 8.65625430313247 16.0415395721278  8.66042703765058 16.1374707386992  8.66459977216869 16.2293126254428  C 8.66877250668681 16.34614919195  8.70632711734981 16.3711438717135  8.82316368385694 16.3502801991229  C 8.8774092325924 16.3419764574318  8.93165478132785 16.3252437920142  8.9859003300633 16.3211127848413  C 9.11942783464288 16.3127673158051  9.21540072855945 16.3962220061673  9.198709790487 16.5297495107469  C 9.18201885241455 16.6799679533989  9.15280971078777 16.834359130569  9.10273689657043 16.9761903768397  C 9.04849134783498 17.1347960158731  9.03597314428064 17.1305815540098  9.17367338337833 17.2265961752715  C 9.31137362247602 17.3225690691881  9.36561917121147 17.4560965737677  9.34475549862091 17.6187914926289  C 9.33223729506657 17.7273243174449  9.30302815343979 17.8316426803977  9.29885541892168 17.9400920505235  C 9.29468268440357 18.1070014312479  9.18201885241455 18.1946288561283  9.0568368168712 18.2363562013094  C 8.71884532090415 18.3406745642622  8.46013578078122 18.5535257520311  8.20977170969451 18.7830261505272  C 8.05538053252438 18.9248573967978  7.9218530279448 19.0834630358313  7.779980054329 19.2378124856562  C 7.70069809848488 19.3212671760185  7.69652536396677 19.3755544520991  7.75911638173844 19.4756583531886  C 7.77580731981089 19.5048674948154  7.79249825788334 19.5340766364422  7.81336193047389 19.5591130435508  C 7.91350755890858 19.6885095409575  8.04286232897004 19.7969589110832  8.00113498378892 19.9930774334344  C 7.98444404571648 20.0723176619334  8.04286232897004 20.1099139999416  8.12214428481417 20.0848775928329  C 8.15552616095906 20.0765321237967  8.18473530258584 20.0597994583791  8.21394444421262 20.0389357857885  C 8.28070819650241 19.9930357060893  8.33495374523786 20.0180721131979  8.37668109041898 20.0681449274153  C 8.53941773662534 20.2726089188028  8.72301805542226 20.4478637685634  8.92748204680973 20.6022549457336  C 9.01928220620819 20.6690604253686  9.09021869301609 20.7566461229037  9.10690963108854 20.8693099548927  C 9.11942783464287 20.9652828488093  9.17784611789644 20.9736283178455  9.25295533922245 20.9652828488093  C 9.32389182603035 20.9569373797731  9.39065557832014 20.9360737071825  9.46576479964615 20.9193827691101  C 9.51166487934538 21.0153556630266  9.58260136615328 21.027873866581  9.64936511844307 20.9444191762187  C 9.67857426006985 20.9068645655557  9.71195613621474 20.8651372203746  9.72030160525097 20.8192371406754  C 9.76620168495019 20.6314640873604  9.85382910983054 20.4770729101902  9.99570208344634 20.3435454056107  C 10.1333605951988 20.2141906355492  10.2544116235693 20.0681449274153  10.3879391281488 19.9220992192814  C 10.3962845971851 19.9304446883176  10.4129755352575 19.9387901573538  10.4254520114667 19.9513083609081  C 10.5297703744195 20.0597994583791  10.6507796754447 20.0514122619976  10.730103358634 19.9262302264543  C 10.7760034383332 19.8511210051283  10.8218617906873 19.7760117838023  10.8594581286955 19.69255709344  C 10.9262218809853 19.5506841198242  11.0221947749018 19.4463657568714  11.1473768104452 19.354565597473  C 11.2350042353255 19.287760117838  11.3100717293064 19.2043054274758  11.372662747078 19.1167197299406  C 11.4728083755127 18.9706740218067  11.5061902516576 18.7912464375279  11.5270539242482 18.6201643222853  C 11.5479175968387 18.4699458796333  11.556263065875 18.3155547024632  11.5729540039474 18.1653779871563  C 11.5771684658107 18.1069597039028  11.5896449420199 18.048499693304  11.5980321384013 17.9942541445686  C 11.627241280028 17.8064810912535  11.7858051917163 17.6604353831196  11.7607270572624 17.451798657214  C 11.8024544024436 17.4726623298046  11.8316635440703 17.4935260023951  11.8650454202152 17.5102169404676  C 11.9234637034688 17.5352533475763  11.969363783168 17.5268661511949  11.9985729247948 17.4601441262502  C 12.0611639425665 17.3099256835982  12.1946914471461 17.2389891967903  12.336606148107 17.1972618516092  C 12.4492699800961 17.1597072409462  12.5452428740126 17.1095926993837  12.6370430334111 17.0345252054029  C 12.7413613963639 16.9468977805225  12.8498524938348 16.8634430901603  13.0042436710049 16.8717885591965  C 13.2295296076378 16.8801340282327  13.4381663335434 16.8258884794973  13.5967719725768 16.6506336297366  C 13.7344722116745 16.5004151870845  13.8805179198084 16.4753787799759  14.0557727695691 16.5755244084106  C 14.1683948742129 16.6381154261822  14.2935769097563 16.6464608952185  14.4229734071629 16.629769957146  C 14.6733374782496 16.5922570738282  14.8903196731914 16.4837242490121  15.0947836645789 16.3418930027415  C 15.2533475762672 16.2292291707525  15.395220549883 16.0998326733458  15.4786752402452 15.9162740818941  C 15.5329207889806 15.7952647808688  15.6163754793429 15.6992918869523  15.7457302494043 15.6492190727349  C 15.7874575945855 15.6325698620077  15.8291849397666 15.61583719659  15.8583523540482 15.5866280549633  C 16.0210890002545 15.390509532612  16.1838673738061 15.1902182757426  16.3424312854943 14.9857960117003  C 16.4216715139933 14.8814776487476  16.3841586306754 14.7562956132042  16.3925040997117 14.6394173193519  C 16.3966768342298 14.530926221881  16.4091533104389 14.414131382719  16.5051262043555 14.3515403649474  C 16.67203558508 14.2388765329583  16.7554902754422 14.0760981594068  16.8222957550772 13.9008850369913  C 16.851504896704 13.8299485501834  16.851504896704 13.7464938598212  16.8640231002583 13.6713846384951  C 16.859808638395 13.6588247075956  16.889059507367 13.6505209659046  16.8932322418851 13.6379610350051  C 16.9098814526123 13.5879299481329  16.9223996561667 13.5336426720523  16.9307451252029 13.4793971233168  C 16.9599542668297 13.3291786806648  16.9891634084565 13.1831329725309  17.0141998155651 13.0329145298789  C 17.0434089571919 12.8534869456001  17.0684453643006 12.6740593613213  17.0934817714093 12.4946735043876  C 17.1185181785179 12.3277641236632  17.1268636475541 12.1608547429387  17.160245523699 11.9939453622142  C 17.1811091962896 11.8771087957071  17.2479146759246 11.7727904327543  17.3688822496046 11.7352358220913  C 17.7611192943071 11.6017083175117  18.0323470379844 11.3471715119069  18.1491836044915 10.9507617326863  C 18.2076018877451 10.7588159448531  18.3202657197341 10.6670157854547  18.5080387730491 10.6336339093098  C 18.720889960818 10.5960792986468  18.9170084831693 10.5209700773208  19.0421905187126 10.3290242894876  C 19.0755723948575 10.2747787407522  19.0964360674481 10.2121877229805  19.1381634126292 10.1662876432813  C 19.2466545101001 10.0494510767741  19.363449349262 9.94095997930323  19.4761549085962 9.82829614731422  C 19.7432099177554 9.56541387267317  19.8433555461901 9.25663151833291  19.7515971141368 8.88943088073907  C 19.7181735106467 8.76424884519572  19.7015242999195 8.63906680965237  19.6806606273289 8.5097120395909  C 19.6639696892565 8.40539367663811  19.6723151582927 8.29272984464909  19.6431060166659 8.19258421621441  C 19.5763422643761 7.97142928675449  19.4511602288328 7.79617443699379  19.1966234232279 7.75444709181268  C 19.1257286637652 7.74192888825834  19.0589231841303 7.72106521566778  18.9879866973224 7.71271974663156  C 18.8336372474974 7.68768333952289  18.7042407500908 7.6209195872331  18.6082678561742 7.50408302072597  C 18.4413584754497 7.29127356030227  18.2786218292434 7.07011863084235  18.1242306520732 6.84896370138242  C 18.0240850236385 6.70709072776662  17.9489758023125 6.55269955059649  17.7444700835799 6.53600861252404  C 17.7194336764712 6.53600861252404  17.6902245348444 6.49845400186104  17.673533596772 6.46924486023426  C 17.5900789064097 6.32319915210034  17.4648968708664 6.24808993077433  17.3022019520052 6.23139899270189  C 17.2145327997797 6.22305352366566  17.1186016332083 6.21470805462944  17.0393196773642 6.23974446173811  C 16.809819278868 6.31485368306412  16.6011825529624 6.24808993077433  16.396718561575 6.16880797493021  C 16.3132638712127 6.13959883330343  16.2298091808505 6.08535328456797  16.1713908975969 6.0227622667963  C 16.0962816762709 5.94348031095218  16.0044815168725 5.90592570028917  15.904377615783 5.89340749673483  C 15.7123901006046 5.86419835510805  15.533004243671 5.9184439038435  15.3577076665651 5.98520765613329  C 15.2700802416848 6.01858953227819  15.1782800822863 6.05197140842308  15.0781761811968 6.08535328456797  C 15.1240762608961 5.90592570028917  15.1658036060772 5.74318905408281  15.2116619584312 5.58045240787645  C 15.2325256310218 5.50117045203233  15.2242218893307 5.45944310685121  15.1407671989685 5.42606123070632  C 15.0155851634251 5.37181568197086  14.8987068695728 5.30087919516297  14.7818703030657 5.22994270835506  C 14.7234937471573 5.19238809769206  14.6775519401129 5.13814254895661  14.6149609223412 5.1005879382936  C 14.3938059928813 4.96706043371402  14.1517873908308 4.89195121238801  13.897250585226 4.84187839817067  C 13.6135046379944 4.78763284943522  13.3464913561804 4.82936019461634  13.112776495821 5.01296051341325  C 12.9959399293139 5.10476067281171  12.8791033628067 5.19238809769206  12.7664395308177 5.27584278805429  C 12.7288849201547 5.18821536317395  12.6746393714193 5.11310614184794  12.6078756191295 5.05468785859437  C 12.6496029643106 5.05051512407626  12.6955030440098 5.03799692052192  12.7372303891909 5.02130598244948  C 12.8206850795532 4.98792410630458  12.9041397699154 4.95036949564158  12.9750762567233 4.90029668142424  C 13.1002582922667 4.80432378750767  13.22544032781 4.70417815907298  13.338104159799 4.59151432708397  C 13.4048679120888 4.52475057479418  13.3881769740164 4.47050502605873  13.300549549136 4.42877768087761  C 13.0585309470856 4.31194111437048  12.7998214069626 4.26604103467125  12.5328081251487 4.26604103467125  C 12.4076260896053 4.26604103467125  12.3032659993073 4.31611384888859  12.2072931053908 4.37453213214215  C 12.1071892043013 4.43712314991383  12.0195200520757 4.51223237123984  11.9152016891229 4.57065065449341  C 11.8317469987607 4.61655073419264  11.7441195738804 4.66245081389187  11.618937538337 4.63324167226508  C 11.6564504216548 4.55395971642096  11.6773140942454 4.47467776057684  11.7232559012898 4.41208674280516  C 11.9110289546048 4.15337720268223  12.1447020876191 3.94891321129476  12.4242753003326 3.79452203412462  C 12.5035572561767 3.7527946889435  12.5703210084665 3.69854914020805  12.5536717977392 3.59423077725526  C 12.5411535941849 3.51912155592925  12.5703210084665 3.4690487417119  12.6287810190652 3.42732139653079  C 12.6746810987645 3.39393952038589  12.7164084439456 3.35638490972289  12.7748267271991 3.30631209550555  C 12.7205811784637 3.27710295387876  12.6871575749736 3.25206654677009  12.6454302297925 3.23954834321576  C 12.5661900012935 3.21033920158898  12.4743481145499 3.19782099803464  12.3992806205691 3.16026638737163  C 12.3492078063517 3.13522998026296  12.2991349921344 3.08515716604562  12.2866167885801 3.03508435182828  C 12.2615386541262 2.93911145791171  12.2699258505076 2.83479309495892  12.2448894433989 2.73464746652424  C 12.1948166291816 2.50514706802809  12.1322256114099 2.27564666953194  12.0779800626745 2.06700994362635  C 11.9736616997217 1.99607345681846  11.9068562200867 2.03780080199957  11.8484796641783 2.10456455428936  C 11.7900613809248 2.16715557206104  11.723297628635 2.22140112079649  11.6690520798995 2.28816487308628  C 11.6439739454457 2.32154674923117  11.6231102728551 2.37161956344851  11.6314974692365 2.41334690862963  C 11.648188407309 2.53852894417298  11.648188407309 2.55939261676354  11.5313518408018 2.58860175839032  C 11.427033477849 2.61781090001711  11.3644424600774 2.68040191778878  11.3310605839325 2.77220207718724  C 11.3060241768238 2.83896582947703  11.2559513626065 2.87234770562192  11.1892293376619 2.88903864369437  C 11.0014562843468 2.9349387233936  10.8178559655499 2.92242051983926  10.6300829122349 2.89738411273059  C 10.4882516659643 2.87652044014003  10.3588551685576 2.84313856399514  10.2754004781954 2.71378379393368  C 10.2587512674681 2.68457465230689  10.217023922287 2.66371097971634  10.187773053315 2.65953824519822  C 10.0667637522898 2.63867457260767  9.94575445126455 2.62615636905333  9.82474515023931 2.60529269646277  C 9.73711772535896 2.58860175839032  9.68704491114162 2.61781090001711  9.63697209692428 2.69292012134312  C 9.54934467204393 2.83479309495892  9.34070794613834 2.99335700664716  9.1112075476422 2.90155684724871  C 8.96516183950829 2.84313856399514  8.81077066233815 2.8640022365857  8.66055221968613 2.91407505080304  C 8.51867924607033 2.95997513050227  8.37263353793642 2.99335700664716  8.22658782980251 3.01839341375584  C 8.12226946684971 3.03925708634639  8.01795110389692 3.02256614827395  7.93449641353468 2.94328419242982  C 7.75506882925588 2.77637481170535  7.65075046630308 2.56773808579977  7.6215413246763 2.32154674923117  C 7.59650491756763 2.1170827578437  7.67578687341175 1.941827908083  7.78010523636455 1.77909126187664  C 7.89276906835357 1.60800914663406  7.88859633383545 1.5871454740435  7.73420515666532 1.46613617301826  C 7.65909593533931 1.4077178897647  7.62988679371253 1.34095413747491  7.65075046630309 1.24915397807645  C 7.65909593533931 1.21159936741345  7.68413234244798 1.17404475675044  7.67578687341175 1.14483561512366  C 7.66744140437553 1.09893553542443  7.64657773178497 1.04051725217086  7.61319585564008 1.02382631409842  C 7.51722296172351 0.973753499881076  7.4421137403975 1.00296264150786  7.36700451907149 1.10728100446065  C 7.26268615611869 1.24498124355834  7.17088599672023 1.39937242072847  6.9831129434052 1.42858156235526  C 6.84958543882563 1.44944523494582  6.71188519972794 1.46196343850015  6.57418496063025 1.47448164205449  C 6.54080308448536 1.4786543765726  6.50742120834046 1.46613617301826  6.47403933219557 1.47030890753637  C 6.36972096924278 1.47448164205449  6.31547542050732 1.54541812886239  6.26540260628998 1.62470008470651  C 6.17777518140963 1.77074579284042  6.14022057074663 1.77491852735853  6.01503853520328 1.6580819608514  C 6.00252033164894 1.64973649181518  5.99417486261272 1.63304555374273  5.98165665905838 1.62887281922462  C 5.86899282706937 1.57045453597106  5.76050172959846 1.51203625271749  5.64783789760944 1.46613617301826  C 5.61862875598266 1.45361796946393  5.55603773821098 1.48282711109071  5.53517406562043 1.51203625271749  C 5.46006484429441 1.61635461567029  5.46006484429441 1.73736391669553  5.4892739859212 1.85837321772077  C 5.53100133110231 2.01693712940901  5.60611055242832 2.13794643043426  5.76884719863468 2.21305565176027  C 5.91072017225048 2.27981940405006  5.90237470321426 2.45090151929264  5.76884719863468 2.52601074061865  C 5.72711985345357 2.55104714772732  5.67704703923622 2.56356535128165  5.63531969405511 2.58860175839032  C 5.35157374682351 2.75133840459668  5.06782779959191 2.91407505080304  4.78408185236031 3.08098443152751  C 4.72566356910674 3.11853904219052  4.67141802037129 3.11853904219052  4.61299973711773 3.09350263508185  C 4.50450863964682 3.04342982086451  4.40019027669403 3.03925708634639  4.30004464825935 3.11436630767241  C 4.28752644470501 3.12688451122674  4.249971834042 3.12688451122674  4.23328089596956 3.11436630767241  C 4.10392612590809 3.02673888279206  3.9996077629553 2.92242051983926  3.97039862132852 2.75551113911479  C 3.94536221421985 2.60946543098088  3.87442572741195 2.50097433350998  3.7158618157237 2.46341972284697  C 3.6073707182528 2.4383833157383  3.51139782433623 2.46341972284697  3.41125219590154 2.49680159899187  C 3.26937922228574 2.54270167869109  3.13167898318806 2.54687441320921  2.98146054053603 2.52601074061865  C 2.87714217758324 2.5093198025462  2.76865108011233 2.51349253706431  2.66433271715954 2.52601074061865  C 2.59339623035164 2.53435620965487  2.54749615065241 2.59277449290844  2.53915068161619 2.66788371423445  C 2.53080521257996 2.74716567007857  2.5808780267973 2.7930657497778  2.64764177908709 2.82227489140458  C 2.69354185878632 2.84313856399514  2.74361467300366 2.85565676754948  2.77699654914856 2.88903864369437  C 2.81037842529345 2.91824778532115  2.83958756692023 2.96832059953849  2.83958756692023 3.0058752102015  C 2.83958756692023 3.03508435182828  2.793687487221 3.0768116970094  2.76030561107611 3.08932990056373  C 2.71023279685877 3.10602083863618  2.6518145136052 3.11019357315429  2.59756896486975 3.11019357315429  C 2.4014504425185 3.11853904219052  2.30965028312004 3.23954834321576  2.38893223896416 3.41897592749456  C 2.4390050531815 3.53163975948358  2.5099415399894 3.64013085695449  2.58922349583353 3.73610375087106  C 2.73526920396744 3.92387680418609  2.75196014203989 4.09913165394678  2.61843263746031 4.29107744177992  C 2.5433234161343 4.39956853925082  2.4723869293264 4.51223237123984  2.51411427450752 4.65827807937375  C 2.52245974354374 4.68748722100054  2.5099415399894 4.72504183166354  2.49325060191696 4.75425097329032  C 2.43483231866339 4.87943300883368  2.39310497348228 5.00878777889514  2.39727770800039 5.15483348702905  C 2.39727770800039 5.18821536317395  2.38475950444605 5.22576997383695  2.37224130089172 5.25915184998185  C 2.35137762830116 5.33426107130786  2.31382301763815 5.40937029263387  2.30965028312004 5.48447951395988  C 2.29713207956571 5.6680798327568  2.21785012372158 5.73484358504659  2.046768008479 5.68059803631113  C 1.88403136227264 5.62635248757568  1.74215838865684 5.65138889468435  1.59611268052293 5.73067085052847  C 1.54603986630559 5.75570725763714  1.48344884853391 5.75987999215526  1.42503056528035 5.76405272667337  C 1.35826681299056 5.76405272667337  1.29150306070077 5.75153452311903  1.22056657389287 5.74318905408281  C 1.20387563582043 5.83498921348127  1.14128461804875 5.87254382414427  1.05782992768651 5.88506202769861  C 1.03696625509596 5.88923476221672  1.02027531702351 5.90175296577106  1.00358437895106 5.91427116932539  C 0.736529369791909 6.09787148812231  0.640556475875339 6.38161743535391  0.569619989067439 6.67788158613984  C 0.548756316476881 6.75716354198397  0.544583581958769 6.83227276330998  0.448610688042198 6.87817284300921  C 0.386019670270522 6.90738198463599  0.331774121535069 6.97414573692578  0.290046776353952 7.03673675469746  C 0.185728413401158 7.19112793186759  0.18990114791927 7.30379176385661  0.306737714426399 7.44983747199052  Z " fill-rule="nonzero" fill="#22b1a7" stroke="none" transform="matrix(1 0 0 1 60 1123 )" />
  </g>
</svg>