<?xml version="1.0" encoding="utf-8"?>
<svg version="1.1" xmlns:xlink="http://www.w3.org/1999/xlink" width="10px" height="15px" xmlns="http://www.w3.org/2000/svg">
  <g transform="matrix(1 0 0 1 -408 -1129 )">
    <path d="M 2.216015625 1.33515625  C 2.32029122320303 0.9179884574021  2.69499731642234 0.625244290030933  3.125 0.625  L 3.569140625 0.624999999999999  C 4.47782467342404 1.04164372425295  5.52295657657596 1.04164372425295  6.431640625 0.625  L 6.875 0.625  C 7.30514832922158 0.625065128146124  7.68006403389861 0.917847237726381  7.784375 1.33515625  L 9.659375 8.83515625  C 9.67796024433633 8.90950882737283  9.68735805983325 8.98585983153714  9.68735805983325 9.06250001074507  C 9.68735805983325 9.58021153349716  9.26771151681838 9.99992161700281  8.75 10  L 6.5625 10  L 6.5625 14.0625  C 6.5625 14.5802669529664  6.14276695296637 15  5.625 15  L 4.375 15  C 3.85723304703363 15  3.4375 14.5802669529664  3.4375 14.0625  L 3.4375 10  L 1.25 10  C 0.732441084231271 9.99970600990074  0.313032530046717 9.58005915051372  0.313032530046717 9.06250015124708  C 0.313032530046717 8.98585992358274  0.322430357427012 8.90950887151184  0.341015625 8.83515625  L 2.216015625 1.33515625  Z " fill-rule="nonzero" fill="#22b1a7" stroke="none" transform="matrix(1 0 0 1 408 1129 )" />
  </g>
</svg>