<?xml version="1.0" encoding="UTF-8"?>
<svg width="240px" height="512px" viewBox="0 0 240 512" version="1.1" xmlns="http://www.w3.org/2000/svg" xmlns:xlink="http://www.w3.org/1999/xlink">
    <title>Female 3</title>
    <g id="Page-1" stroke="none" stroke-width="1" fill="none" fill-rule="evenodd">
        <g id="Female-3" fill-rule="nonzero">
            <g id="Female">
                <path d="M56,64 C56,28.653776 84.653776,0 120,0 C155.346224,0 184,28.653776 184,64 C184,99.346224 155.346224,128 120,128 C84.653776,128 56,99.346224 56,64 L56,64 Z" id="Path" fill="#620ED9"></path>
                <path d="M72,144 L83.37,144 C106.632312,154.666079 133.387688,154.666079 156.65,144 L168,144 C179.011797,144 188.609639,151.496889 191.28,162.18 L239.28,354.18 C241.071991,361.349084 239.461494,368.943982 234.914144,374.768808 C230.366794,380.593635 223.389655,383.998881 216,384 L160,384 L160,488 C160,501.254834 149.254834,512 136,512 L104,512 C90.745166,512 80,501.254834 80,488 L80,384 L24,384 C16.6121012,383.995803 9.63783425,380.58926 5.09277799,374.764869 C0.547721735,368.940478 -1.06156694,361.347381 0.73,354.18 L48.73,162.18 C51.3994553,151.500505 60.9919313,144.006254 72,144 Z" id="Path" fill="#620ED9"></path>
            </g>
        </g>
    </g>
</svg>
