<?xml version="1.0" encoding="UTF-8"?>
<svg width="192px" height="512px" viewBox="0 0 192 512" version="1.1" xmlns="http://www.w3.org/2000/svg" xmlns:xlink="http://www.w3.org/1999/xlink">
    <title>Male 3</title>
    <g id="Page-1" stroke="none" stroke-width="1" fill="none" fill-rule="evenodd">
        <g id="Male-3" fill-rule="nonzero">
            <g id="Male">
                <path d="M32,64 C32,28.653776 60.653776,0 96,0 C131.346224,0 160,28.653776 160,64 C160,99.346224 131.346224,128 96,128 C60.653776,128 32,99.346224 32,64 Z" id="Path" fill="#22B1A7"></path>
                <path d="M48,144 L59.36,144 C82.6223116,154.666079 109.377688,154.666079 132.64,144 L144,144 C170.509668,144 192,165.490332 192,192 L192,328 C192,341.254834 181.254834,352 168,352 L152,352 L152,488 C152,501.254834 141.254834,512 128,512 L64,512 C50.745166,512 40,501.254834 40,488 L40,352 L24,352 C10.745166,352 0,341.254834 0,328 L0,192 C0,165.490332 21.490332,144 48,144 Z" id="Path" fill="#620ED9"></path>
            </g>
        </g>
    </g>
</svg>