<?xml version="1.0" encoding="utf-8"?>
<svg version="1.1" xmlns:xlink="http://www.w3.org/1999/xlink" width="9px" height="15px" xmlns="http://www.w3.org/2000/svg">
  <g transform="matrix(1 0 0 1 -808 -1129 )">
    <path d="M 0.75 2.5  C 0.75 1.46446609406726  1.58946609406726 0.625  2.625 0.625  L 3.06875 0.624999999999999  C 3.97743404842404 1.04164372425295  5.02256595157596 1.04164372425295  5.93125 0.625  L 6.375 0.625  C 7.41053390593274 0.625  8.25 1.46446609406726  8.25 2.5  L 8.25 7.8125  C 8.25 8.33026695296637  7.83026695296637 8.75  7.3125 8.75  L 6.6875 8.75  L 6.6875 14.0625  C 6.6875 14.5802669529664  6.26776695296637 15  5.75 15  L 3.25 15  C 2.73223304703363 15  2.3125 14.5802669529664  2.3125 14.0625  L 2.3125 8.75  L 1.6875 8.75  C 1.16973304703363 8.75  0.75 8.33026695296637  0.75 7.8125  L 0.75 2.5  Z " fill-rule="nonzero" fill="#8d58d9" stroke="none" transform="matrix(1 0 0 1 808 1129 )" />
  </g>
</svg>