<?xml version="1.0" standalone="no"?>
<!DOCTYPE svg PUBLIC "-//W3C//DTD SVG 20010904//EN"
 "http://www.w3.org/TR/2001/REC-SVG-20010904/DTD/svg10.dtd">
<svg version="1.0" xmlns="http://www.w3.org/2000/svg"
 width="972.000000pt" height="972.000000pt" viewBox="0 0 972.000000 972.000000"
 preserveAspectRatio="xMidYMid meet">
<metadata>
Created by potrace 1.11, written by Peter Selinger 2001-2013
</metadata>
<g transform="translate(0.000000,972.000000) scale(0.100000,-0.100000)"
fill="#000000" stroke="none">
<path d="M4590 9403 c-312 -22 -716 -92 -984 -170 -949 -275 -1807 -860 -2387
-1629 -585 -773 -891 -1644 -934 -2659 -8 -174 8 -476 35 -685 19 -150 55
-349 65 -358 3 -3 31 19 62 49 101 96 202 155 314 184 77 20 231 23 312 6 32
-7 65 -10 74 -7 17 7 18 0 -12 216 -60 447 -27 978 90 1425 366 1401 1478
2450 2910 2745 506 105 1086 90 1615 -40 445 -110 840 -285 1220 -541 371
-250 651 -520 942 -908 18 -25 37 -45 42 -45 6 -1 24 23 41 52 86 142 182 234
310 296 83 40 143 56 245 65 55 4 76 10 78 21 1 8 -44 77 -101 152 -759 1007
-1861 1643 -3122 1802 -246 31 -608 44 -815 29z"/>
<path d="M4615 8294 c-177 -15 -387 -49 -520 -84 -303 -81 -343 -94 -524 -166
-480 -192 -924 -492 -1240 -837 -219 -239 -382 -472 -525 -749 -166 -323 -220
-466 -305 -813 -72 -297 -88 -394 -101 -635 -24 -437 48 -956 173 -1255 173
-416 245 -555 414 -810 105 -160 199 -279 325 -416 87 -94 285 -278 344 -321
18 -13 67 -50 110 -84 253 -195 620 -397 934 -511 100 -36 383 -108 560 -142
237 -45 350 -53 671 -48 348 4 430 15 796 106 502 123 1042 409 1423 752 312
281 568 599 761 947 66 120 212 460 248 578 37 122 89 344 122 519 32 166 33
178 35 485 3 354 -3 429 -52 685 -70 361 -92 430 -233 733 -149 323 -176 368
-400 675 -309 422 -676 741 -1122 975 -381 201 -811 344 -1199 398 -102 15
-585 27 -695 18z m1340 -1997 c278 -91 428 -310 412 -601 -15 -266 -107 -389
-616 -814 l-294 -247 419 -5 c379 -5 422 -7 452 -23 47 -26 72 -72 72 -132 0
-65 -28 -110 -83 -135 -40 -19 -72 -20 -627 -20 -378 0 -598 4 -623 11 -50 13
-103 61 -117 105 -16 48 -5 113 28 162 15 24 184 175 397 355 433 368 534 468
591 582 37 75 39 84 39 174 0 85 -3 102 -27 147 -31 59 -84 108 -147 138 -37
17 -65 21 -146 21 -94 0 -105 -2 -170 -34 -51 -25 -96 -60 -162 -125 -51 -49
-100 -94 -109 -99 -9 -5 -38 -9 -65 -9 -122 0 -191 115 -140 229 25 54 170
198 244 242 144 85 256 112 452 107 118 -3 153 -7 220 -29z m-1275 -23 c93
-79 82 -167 -53 -420 -41 -76 -159 -299 -262 -494 -500 -948 -512 -970 -538
-999 -76 -83 -235 -61 -285 40 -20 41 -22 51 -12 95 6 26 61 141 122 254 61
113 140 259 176 324 35 66 107 199 159 295 53 97 143 264 200 371 58 107 111
205 119 217 8 12 14 27 14 33 0 7 -144 10 -440 10 -483 0 -472 -1 -523 60 -32
38 -43 88 -28 133 13 38 54 84 86 98 11 4 293 8 627 8 l606 1 32 -26z m2737
-1236 c-3 -8 -6 -5 -6 6 -1 11 2 17 5 13 3 -3 4 -12 1 -19z m10 -150 c-2 -13
-4 -3 -4 22 0 25 2 35 4 23 2 -13 2 -33 0 -45z m0 -240 c-2 -13 -4 -5 -4 17
-1 22 1 32 4 23 2 -10 2 -28 0 -40z m-10 -120 c-3 -8 -6 -5 -6 6 -1 11 2 17 5
13 3 -3 4 -12 1 -19z m-3978 -394 c19 -24 21 -40 21 -167 l0 -140 22 28 c31
40 113 75 174 75 74 0 147 -39 182 -98 27 -47 27 -47 30 -273 l3 -227 -27 -21
c-35 -27 -59 -27 -89 4 -25 24 -25 27 -25 200 0 192 -7 225 -55 263 -36 29
-108 30 -153 2 -54 -33 -62 -67 -62 -262 0 -188 -5 -210 -55 -222 -25 -6 -64
7 -77 28 -4 6 -8 190 -8 408 l0 397 22 15 c34 24 73 20 97 -10z m1050 -236
c208 -105 244 -376 71 -531 -65 -59 -132 -82 -232 -81 -61 1 -87 6 -130 27
-190 93 -246 325 -119 493 96 128 264 166 410 92z m680 7 c20 -19 18 -71 -3
-94 -10 -11 -32 -23 -50 -27 -51 -10 -94 -43 -124 -92 -26 -44 -27 -55 -32
-203 -5 -165 -10 -182 -56 -193 -25 -7 -63 8 -76 28 -4 6 -8 134 -8 285 0 241
2 277 17 293 16 18 68 24 89 10 19 -12 34 -49 34 -83 l0 -33 29 45 c47 76 136
107 180 64z m499 -11 c42 -22 64 -41 87 -78 l30 -49 3 -206 c2 -113 1 -215 -2
-227 -3 -12 -20 -27 -36 -34 -39 -16 -76 -1 -90 36 -10 25 -11 26 -33 10 -54
-40 -102 -56 -173 -56 -136 0 -224 74 -224 190 0 74 35 129 104 164 49 26 69
30 139 30 45 1 103 -3 130 -7 47 -8 47 -8 47 20 0 44 -33 89 -76 103 -35 12
-108 10 -219 -6 -50 -7 -81 20 -71 60 9 35 42 54 122 71 102 21 193 14 262
-21z m574 25 c56 -12 128 -44 140 -63 12 -17 9 -61 -4 -74 -17 -17 -63 -15
-99 3 -76 40 -177 37 -200 -6 -23 -45 18 -80 131 -113 80 -23 157 -71 177
-109 20 -38 22 -122 3 -158 -42 -80 -117 -114 -244 -107 -65 3 -94 11 -148 37
-37 17 -73 41 -79 52 -15 29 -3 68 26 81 21 9 34 6 88 -21 104 -53 216 -52
236 1 19 51 -11 75 -144 117 -38 12 -87 34 -108 47 -39 25 -76 89 -77 129 0
77 60 155 139 180 57 17 95 18 163 4z m-1665 -1615 c-3 -3 -12 -4 -19 -1 -8 3
-5 6 6 6 11 1 17 -2 13 -5z m670 0 c-3 -3 -12 -4 -19 -1 -8 3 -5 6 6 6 11 1
17 -2 13 -5z m-590 -10 c-3 -3 -12 -4 -19 -1 -8 3 -5 6 6 6 11 1 17 -2 13 -5z
m510 0 c-3 -3 -12 -4 -19 -1 -8 3 -5 6 6 6 11 1 17 -2 13 -5z m-379 -11 c-10
-2 -26 -2 -35 0 -10 3 -2 5 17 5 19 0 27 -2 18 -5z m245 0 c-7 -2 -21 -2 -30
0 -10 3 -4 5 12 5 17 0 24 -2 18 -5z"/>
<path d="M4286 3798 c-109 -29 -167 -180 -111 -288 49 -94 169 -129 261 -75
56 33 85 81 91 154 10 102 -45 184 -142 210 -46 12 -47 12 -99 -1z"/>
<path d="M5445 3576 c-22 -9 -48 -25 -57 -37 -20 -24 -23 -70 -8 -100 27 -49
122 -63 197 -30 49 23 70 51 79 108 6 39 5 43 -20 52 -49 19 -148 22 -191 7z"/>
<path d="M8513 7110 c-87 -18 -190 -87 -244 -166 -53 -77 -71 -146 -67 -254 4
-91 7 -101 60 -216 239 -517 351 -1031 351 -1609 0 -414 -56 -763 -190 -1170
-306 -936 -995 -1727 -1893 -2175 -400 -200 -811 -321 -1285 -376 -179 -22
-614 -24 -770 -5 -469 57 -847 166 -1243 357 -390 187 -721 423 -1032 734
-365 364 -635 772 -837 1265 -68 165 -100 220 -165 280 -79 74 -161 100 -288
93 -157 -9 -279 -88 -341 -223 -54 -114 -48 -248 17 -422 40 -105 244 -518
324 -653 202 -343 429 -638 708 -917 717 -719 1649 -1177 2668 -1312 654 -87
1377 -15 2019 200 1157 388 2102 1203 2637 2274 305 610 464 1244 486 1946 13
406 -19 736 -113 1159 -90 401 -303 952 -417 1076 -85 93 -248 141 -385 114z"/>
</g>
</svg>
