<?xml version="1.0" encoding="UTF-8"?>
<svg width="42px" height="41px" viewBox="0 0 42 41" version="1.1" xmlns="http://www.w3.org/2000/svg" xmlns:xlink="http://www.w3.org/1999/xlink">
    <title>Group</title>
    <g id="Page-1" stroke="none" stroke-width="1" fill="none" fill-rule="evenodd">
        <g id="A5-Copy-9" transform="translate(-270.000000, -322.000000)" fill="#FFFFFF" fill-rule="nonzero">
            <g id="LOGO_PROPOSTA_II_14AGO2020-Copy-4" transform="translate(250.000000, 322.000000)">
                <g id="Group" transform="translate(20.515385, 0.000000)">
                    <path d="M30.1373112,11.3665363 C37.3247701,11.5880305 36.433412,12.5776857 36.1551574,5.71136386 C34.6601282,7.90274317 33.5235287,6.86596157 32.1464041,5.74435237 C25.0934921,0.033536236 14.961848,0.182921724 8.08062831,6.09918892 C1.19940862,12.0154561 -0.460233844,22.0038667 4.13846619,29.824741 C8.73716622,37.6456153 18.2768928,41.0586327 26.7982555,37.9317087 C35.4282447,34.8247426 40.5311159,25.9238664 38.8480964,16.9133179 C38.7915022,16.606996 38.7301919,16.2959616 38.6830301,15.9707892 C38.6075712,15.4382604 38.3906269,14.7784903 39.1546481,14.6276857 C39.9186693,14.4768811 40.0129929,15.0989501 40.1544783,15.66918 C40.7794423,18.1930959 40.8869264,20.8172696 40.4704624,23.3837777 C39.0855773,32.4411479 31.8086788,39.4536891 22.7002788,40.508401 C13.5918787,41.563113 4.90290152,36.3993487 1.4817993,27.8984903 C-1.93495995,19.4533389 0.698671861,9.7679397 7.92261777,4.21184678 C15.1465637,-1.34424614 25.1904461,-1.40939713 32.4859691,4.05251329 C33.9527012,5.17412249 34.7921813,5.15055927 35.8344571,3.77917996 C36.1504412,3.36917996 36.5560327,2.80366272 37.1738523,2.99216846 C37.9567383,3.23251329 37.791672,3.98182363 37.7963882,4.58975467 C37.7963882,6.87067421 37.7586587,9.14688111 37.7963882,11.423088 C37.8246852,12.5965363 37.4332423,13.1667662 36.1928868,13.1479156 C33.8347966,13.1102144 31.4767065,13.1479156 29.1186163,13.1479156 C28.5715393,13.1479156 27.9254226,13.1856167 27.7037622,12.5729731 C27.4821017,11.9603294 27.9584359,11.5032029 28.3970407,11.1968811 C30.5853484,9.66998455 29.3638577,8.86412249 27.8216667,7.94986961 C22.0194244,4.43750436 14.5536639,5.42800258 9.86966163,10.3316 C5.18565939,15.2351975 4.54289394,22.7333689 8.32408183,28.3615396 C12.1052697,33.9897103 19.2936896,36.2345249 25.6091997,33.7593718 C31.9247098,31.2842188 35.6691364,24.7546406 34.6129664,18.0584903 C34.5874669,17.9841892 34.574711,17.9061177 34.575237,17.8275708 C34.8157622,16.7578006 33.1603828,15.0329731 34.575237,14.8020535 C36.2164677,14.5381455 35.9193484,16.7719386 36.1268603,17.9218236 C37.4190937,25.0473409 33.1462343,32.3943524 26.2653271,35.1323983 C19.2880144,37.9278318 11.3042291,35.4869907 7.08667813,29.2690099 C2.86912717,23.0510291 3.55780858,14.73662 8.74102861,9.29613643 C13.9242486,3.85565286 22.2009903,2.7596498 28.6234173,6.66331789 C29.1606403,6.98894913 29.6801537,7.34289717 30.1797569,7.72366272 C31.4625579,8.67090409 32.9575871,9.60400754 30.1373112,11.3665363 Z" id="Path"></path>
                    <path d="M9.21161892,20.4242374 C9.73983113,20.5043524 10.5745951,20.3158466 10.5934598,21.2159616 C10.6123245,22.1160765 9.76812821,21.9935478 9.17860566,22.017111 C8.58908311,22.0406742 7.76375155,22.017111 7.8486428,21.116996 C7.8958046,20.4383754 8.57493457,20.4242374 9.21161892,20.4242374 Z" id="Path"></path>
                    <path d="M19.8180777,10.3202961 C18.9738814,9.99041104 19.1153668,9.24110069 19.1389477,8.58133058 C19.1389477,8.02523862 19.3275949,7.37960644 20.0208734,7.53512368 C20.9075153,7.73305471 20.742449,8.57190529 20.7188681,9.24110069 C20.7047196,9.80661793 20.5679504,10.3061582 19.8180777,10.3202961 Z" id="Path"></path>
                    <path d="M33.8678099,21.3243524 C33.4810831,22.1773409 32.7217781,22.0312489 32.0379319,22.0076857 C31.438977,22.0076857 30.8541706,21.7343524 31.0946958,21.0227432 C31.335221,20.311134 32.1228232,20.4289501 32.7264943,20.4478006 C33.3301653,20.4666512 33.8489452,20.575042 33.8678099,21.3243524 Z" id="Path"></path>
                    <path d="M19.9481263,30.6035478 C20.7876064,30.7779156 20.778174,31.4565363 20.7451607,32.0644673 C20.7121475,32.6723983 20.7451607,33.5018236 19.8019247,33.365157 C18.9954578,33.2379156 19.1699565,32.4226282 19.1227947,31.8146972 C19.0756329,31.2067662 19.2501316,30.7355018 19.9481263,30.6035478 Z" id="Path"></path>
                    <path d="M13.8287595,28.0540075 C13.7508864,27.9804925 13.7065687,27.8782976 13.7061388,27.7712489 C13.7112539,27.7097716 13.7255613,27.6494076 13.7485844,27.5921685 L18.2996985,16.0603294 L12.7157409,16.0603294 C12.6019904,16.0643214 12.4916916,16.0209188 12.4112082,15.9404958 C12.3307249,15.8600728 12.2872897,15.7498567 12.2912847,15.6361915 L12.2912847,14.1375708 C12.287509,14.0251279 12.3301397,13.9160751 12.4091892,13.8359616 C12.4909336,13.7559053 12.6012941,13.7117942 12.7157409,13.7133888 L19.959794,13.7133888 C20.1907589,13.7121785 20.4126949,13.8029822 20.5764562,13.9657361 C20.7402174,14.12849 20.8322874,14.3497642 20.8322874,14.5805593 L20.8322874,15.9943524 L16.2151468,27.7759616 C16.1653062,27.8960364 16.081775,27.9991446 15.9746216,28.0728581 C15.8668932,28.1439284 15.7405641,28.1816859 15.6114757,28.1812489 L14.1494598,28.1812489 C14.0292488,28.1867327 13.912464,28.1403971 13.8287595,28.0540075 Z" id="Path"></path>
                    <path d="M21.7236454,28.0068811 C21.5839549,27.8725871 21.5055319,27.6868979 21.5067012,27.4932029 L21.5067012,26.1076857 C21.4747683,25.368764 21.6001517,24.6314845 21.8745632,23.9445823 C22.1315114,23.4068543 22.5189955,22.941898 23.0017303,22.5920535 C23.8321347,22.0056737 24.6915682,21.4614594 25.5767648,20.9614788 C25.9380836,20.7662772 26.2495446,20.4905265 26.4869876,20.1556167 C26.6787735,19.8631968 26.778937,19.5202711 26.7746746,19.1706742 C26.7948281,18.7338923 26.6224716,18.3102133 26.3030566,18.0113639 C25.9324332,17.7001669 25.4562698,17.543252 24.9730937,17.573088 C24.2025151,17.5956671 23.4519452,17.8234349 22.7989346,18.2328581 C22.7289798,18.2687236 22.6511615,18.2865436 22.5725579,18.2846972 C22.4407006,18.2886144 22.3188287,18.214808 22.26129,18.0961915 L21.685916,17.0546972 C21.6536948,17.002093 21.6358098,16.9419794 21.634038,16.8803294 C21.6299674,16.7608812 21.6890864,16.6481022 21.789672,16.5834328 C22.2719656,16.257552 22.8016943,16.0079873 23.36016,15.8435478 C23.9430723,15.6686758 24.5484093,15.5797691 25.1570248,15.5796397 C26.1531424,15.521897 27.1315913,15.8607931 27.8782608,16.5221685 C28.5544776,17.2027908 28.9108561,18.1375826 28.8592264,19.0952719 C28.8812824,19.8144754 28.6749158,20.5221945 28.2697038,21.116996 C27.7312503,21.796946 27.0707162,22.3706843 26.3219213,22.8088351 C26.0436667,22.9832029 25.8125738,23.1245823 25.6286428,23.2282604 C25.233732,23.4594551 24.8511984,23.7111402 24.482611,23.9822834 C24.2212259,24.1803937 24.0002909,24.4267595 23.8317781,24.7080305 C23.6523304,25.0099739 23.5608579,25.3560033 23.567672,25.707111 L23.567672,26.2113639 L28.0763404,26.2113639 C28.1749981,26.207577 28.2707498,26.2451655 28.3404465,26.315042 C28.4077957,26.3844454 28.4450723,26.4775669 28.4442025,26.5742374 L28.4442025,27.8607892 C28.4450723,27.9574597 28.4077957,28.0505812 28.3404465,28.1199846 C28.2749765,28.1985779 28.1786511,28.2449856 28.0763404,28.2472259 L22.2565738,28.2472259 C22.0530789,28.2452554 21.859746,28.1580644 21.7236454,28.0068811 L21.7236454,28.0068811 Z" id="Path"></path>
                </g>
            </g>
        </g>
    </g>
</svg>