<svg width="276px" height="54px" viewBox="0 0 276 54" version="1.1" xmlns="http://www.w3.org/2000/svg" xmlns:xlink="http://www.w3.org/1999/xlink">
    <g id="Page-1" stroke="none" stroke-width="1" fill="none" fill-rule="evenodd">
        <g id="Group-15" transform="translate(0.196198, 0.760627)">
            <g id="Group-16" transform="translate(105.803802, 2.239373)" fill="#FFFFFF">
                <g id="Group-3" fill-rule="nonzero">
                    <path d="M36.2661927,13.7032547 C44.9153308,13.9702834 43.8427015,15.1633907 43.5078595,6.88549894 C41.7087934,9.52737928 40.3410491,8.2774574 38.6838651,6.92526918 C30.196636,0.0404305736 18.0045677,0.220526545 9.72394719,7.35305259 C1.44332664,14.4855786 -0.553829408,26.5273942 4.98008635,35.9560741 C10.5140021,45.384754 21.9937774,49.4994153 32.2480891,45.7296622 C42.6331181,41.9839698 48.7737359,31.2532626 46.7484487,20.3903367 C46.6803452,20.0210416 46.6065665,19.6460651 46.5498136,19.2540441 C46.459009,18.6120388 46.1979458,17.8166339 47.1173424,17.6348271 C48.036739,17.4530203 48.1502447,18.2029734 48.3205033,18.8904305 C49.0725632,21.9332099 49.2019059,25.0968579 48.7007476,28.1909856 C47.0342249,39.1103587 38.2774583,47.5645294 27.3167263,48.8360677 C16.3559943,50.107606 5.89998125,43.8822815 1.78314576,33.6338272 C-2.32846354,23.4525321 0.84075743,11.7760206 9.5338028,5.077713 C18.2268482,-1.62059459 30.3133071,-1.69913924 39.0924858,4.88562393 C40.8575003,6.23781215 41.8677014,6.20940483 43.12194,4.55609907 C43.5021842,4.06181178 43.990259,3.38003621 44.7337216,3.60729473 C45.6758194,3.89704935 45.4771843,4.80040198 45.4828596,5.53331072 C45.4828596,8.28313886 45.4374573,11.0272855 45.4828596,13.7714322 C45.5169113,15.1861165 45.0458624,15.8735736 43.5532618,15.8508477 C40.7156181,15.805396 37.8779743,15.8508477 35.0403306,15.8508477 C34.3819972,15.8508477 33.6044828,15.8962994 33.3377443,15.1577092 C33.0710058,14.419119 33.6442098,13.8680171 34.1720116,13.498722 C36.805345,11.6579279 35.3354455,10.6863978 33.4796265,9.58419391 C26.4974098,5.34976098 17.5133732,6.54388459 11.8768077,12.4555575 C6.24024224,18.3672305 5.46676065,27.4068666 10.0169107,34.1920696 C14.5670608,40.9772726 23.2173554,43.6835734 30.8172207,40.6995815 C38.417086,37.7155896 42.9229988,29.8436688 41.6520405,21.7709323 C41.6213553,21.6813564 41.6060052,21.5872351 41.6066382,21.4925406 C41.8960779,20.2028484 39.904052,18.123433 41.6066382,17.8450413 C43.5816383,17.5268793 43.2240951,20.2198928 43.4738078,21.6061698 C45.0288366,30.196542 39.8870261,39.053943 31.6067816,42.3548731 C23.2105261,45.7249882 13.6031163,42.7823621 8.52786211,35.2860965 C3.45260789,27.789831 4.28134316,17.766156 10.51865,11.2072246 C16.7559568,4.64829318 26.7159,3.32697517 34.4444254,8.03315449 C35.0909008,8.4257286 35.7160651,8.85244084 36.3172702,9.31148368 C37.8609485,10.4534578 39.6600146,11.5783875 36.2661927,13.7032547 Z" id="Path"></path>
                </g>
                <g id="Group-12" transform="translate(10.000000, 9.000000)" fill-rule="nonzero">
                    <path d="M1.49284901,15 C2.06883181,15.1002761 2.97909035,14.8643324 2.99966117,15.9909634 C3.02023198,17.1175945 2.09968803,16.9642311 1.45685008,16.993724 C0.814012131,17.023217 -0.0859610002,16.993724 0.00660766474,15.867093 C0.0580347008,15.0176958 0.798584021,15 1.49284901,15 Z" id="Path"></path>
                    <path d="M13.8616837,3 C12.8261664,2.64764683 12.9997168,1.84730178 13.0286418,1.14259544 C13.0286418,0.548628666 13.2600424,-0.140976823 14.1104393,0.0251325286 C15.1980218,0.23654443 14.9955463,1.1325282 14.9666213,1.84730178 C14.9492662,2.45133578 14.7815009,2.98489915 13.8616837,3 Z" id="Path"></path>
                    <path d="M30,16.1172409 C29.5898266,17.1816897 28.7844861,16.9993808 28.0591794,16.9699761 C27.4239108,16.9699761 26.8036486,16.628882 27.0587565,15.7408612 C27.3138643,14.8528404 28.1492175,14.9998637 28.7894882,15.0233874 C29.4297589,15.0469111 29.9799915,15.1821726 30,16.1172409 Z" id="Path"></path>
                    <path d="M14.0150891,27 C15.038654,27.1883999 15.0271533,27.9216318 14.9869007,28.5784854 C14.9466482,29.235339 14.9869007,30.1315113 13.8368277,29.9838466 C12.8535153,29.8463656 13.0662788,28.9654689 13.0087752,28.3086153 C12.9512715,27.6517617 13.164035,27.1425729 14.0150891,27 Z" id="Path"></path>
                </g>
                <g id="Group-14" transform="translate(18.000000, 23.750000)" stroke="#FFFFFF">
                    <line x1="5.75" y1="0.5" x2="3.5" y2="7.75" id="Line-3" stroke-linecap="round" stroke-linejoin="round"></line>
                    <path d="" id="Triangle" transform="translate(3.000000, 8.250000) rotate(-160.000000) translate(-3.000000, -8.250000) "></path>
                </g>
                <g id="Group-13" transform="translate(23.000000, 15.000000)" stroke="#FFFFFF">
                    <line x1="0.5" y1="9.5" x2="7.5" y2="3.5" id="Line-5" stroke-linecap="round" stroke-linejoin="round"></line>
                    <path d="" id="Triangle" transform="translate(8.000000, 3.000000) rotate(-315.000000) translate(-8.000000, -3.000000) "></path>
                </g>
            </g>
            <path d="M162.209759,49.8192552 C161.941162,49.5636717 161.793896,49.2072618 161.804321,48.8380213 L161.804321,6.06628962 C161.799766,5.31387676 162.099367,4.59109175 162.636014,4.0598347 C163.172661,3.52857765 163.901503,3.23324895 164.659285,3.24000069 L177.033611,3.24000069 C179.631243,3.21614908 182.189284,3.87281061 184.449759,5.14376208 C186.665675,6.38034433 188.515336,8.17347791 189.813375,10.3434628 C192.751242,15.2332622 192.417401,21.4018921 188.968711,25.9509516 C187.11251,28.3974967 184.512095,30.1854427 181.552562,31.0500129 L192.533193,47.9406536 C192.704511,48.2187383 192.797831,48.5372456 192.803485,48.8631812 C192.811852,49.2371731 192.654348,49.5959381 192.372707,49.844415 C192.070828,50.1102378 191.677936,50.2512739 191.274644,50.2385859 L185.851902,50.2385859 C185.162271,50.2567519 184.516425,49.9040608 184.162574,49.3160583 L173.181943,31.7712617 L169.938434,31.7712617 L169.938434,48.8380213 C169.947955,49.2054445 169.804314,49.5604773 169.541442,49.8192552 C169.276554,50.0790525 168.916985,50.2212529 168.544738,50.213426 L163.248696,50.213426 C162.861287,50.2372769 162.482431,50.0935397 162.209759,49.8192552 L162.209759,49.8192552 Z M176.636619,24.181376 C178.489049,24.2518943 180.291832,23.5776311 181.637029,22.3111611 C182.935889,21.0682156 183.644672,19.337792 183.588202,17.5475643 C183.650275,15.7267937 182.942841,13.9631746 181.637029,12.6833281 C180.302153,11.3971294 178.495368,10.7092483 176.636619,10.7795667 L169.879307,10.7795667 L169.879307,24.1981492 L176.636619,24.181376 Z" id="Shape" stroke="#FFFFFF" stroke-width="3"></path>
            <path d="M199.26758,49.8139906 C198.962803,49.5358809 198.794037,49.141295 198.804491,48.7312612 C198.799442,48.5567066 198.822173,48.3824522 198.87185,48.2148826 L213.185497,4.67250488 C213.308352,4.24902935 213.576242,3.88098613 213.943279,3.63141896 C214.319089,3.36755719 214.770755,3.23031123 215.231507,3.23997065 L220.376,3.23997065 C220.83692,3.22911527 221.288959,3.36647439 221.664229,3.63141896 C222.031265,3.88098613 222.299155,4.24902935 222.42201,4.67250488 L236.735658,48.2148826 C236.785335,48.3824522 236.808065,48.5567066 236.803016,48.7312612 C236.816855,49.1419232 236.647517,49.5378461 236.339927,49.8139906 C236.036938,50.094626 235.63509,50.2470508 235.220095,50.2390754 L230.471332,50.2390754 C230.003199,50.2449576 229.546539,50.0953626 229.174684,49.8139906 C228.811639,49.5424301 228.546072,49.1629836 228.416902,48.7312612 L225.453135,39.3365018 L210.028075,39.3365018 L207.055888,48.7312612 C206.926719,49.1629836 206.661152,49.5424301 206.298107,49.8139906 C205.930103,50.0965149 205.475651,50.2463597 205.009879,50.2390754 L200.387412,50.2390754 C199.972417,50.2470508 199.570569,50.094626 199.26758,49.8139906 L199.26758,49.8139906 Z M223.162952,31.9572848 L217.749025,14.5336708 L212.335098,31.9572848 L223.162952,31.9572848 Z" id="Shape" stroke="#FFFFFF" stroke-width="3"></path>
            <path d="M250.65544,50.1017083 C248.403575,49.3417913 246.269157,48.2589797 244.316339,46.8858195 C244.077302,46.7281758 243.912295,46.4772553 243.85999,46.1918645 C243.766525,45.8954621 243.790346,45.5735377 243.926368,45.2948008 L246.199815,41.1141453 C246.411629,40.6143006 246.902597,40.2983799 247.436106,40.318636 C247.779467,40.3162429 248.117309,40.4067696 248.415182,40.5809848 C251.656642,42.6628497 254.698967,43.7037821 257.542159,43.7037821 C259.490745,43.8157185 261.414652,43.2156244 262.968562,42.011209 C264.258372,40.9323347 264.982207,39.3024831 264.926713,37.6020562 C264.960821,36.5099745 264.617168,35.4404615 263.955935,34.5808132 C263.234646,33.7206625 262.347892,33.020719 261.350598,32.5243369 C260.271955,31.9488621 258.68718,31.2464443 256.604569,30.4001577 L254.721093,29.6046484 C251.954798,28.4554216 249.42247,26.7909034 247.253566,24.6961865 C245.234568,22.710234 244.225069,19.7933664 244.225069,15.9455836 C244.177342,13.4350566 244.796636,10.9581514 246.017276,8.77753666 C247.193297,6.71525037 248.919845,5.03642036 250.995627,3.93677766 C253.271176,2.76128754 255.797021,2.17973895 258.346992,2.24420459 C260.685233,2.22738244 263.010777,2.59603676 265.233712,3.33591422 C267.431893,4.07564593 269.503461,5.16065702 271.373678,6.55180307 C271.607985,6.7180835 271.771214,6.96932795 271.830027,7.2542209 C271.922608,7.55072957 271.898813,7.87230733 271.763649,8.15128463 L269.622958,12.3234773 C269.411878,12.8250265 268.921548,13.1438931 268.386667,13.1274495 C268.042599,13.1268675 267.704808,13.0334347 267.407592,12.8566378 C265.906358,11.8399953 264.276118,11.0370774 262.561996,10.4701097 C261.223216,10.0147038 259.824394,9.76930412 258.41337,9.74230332 C256.72958,9.65224669 255.077677,10.2351224 253.808396,11.3671735 C252.697302,12.4424081 252.092865,13.9528367 252.148945,15.5139775 C252.092597,17.1589654 252.76254,18.7430142 253.974341,19.8300389 C255.769092,21.2726676 257.777166,22.4152927 259.92347,23.215185 C260.316207,23.3449489 261.801415,23.9514543 264.379095,25.0347011 C266.816141,26.0089135 268.941253,27.6521352 270.519061,29.7823685 C272.05698,31.9117099 272.859416,34.5009971 272.800805,37.1450614 C272.843693,39.7224134 272.17986,42.260743 270.88414,44.4739029 C269.585401,46.6113913 267.725741,48.3352029 265.515818,49.4500677 C263.048714,50.6805198 260.329336,51.2926971 257.583645,51.2357323 C255.229468,51.2403486 252.889989,50.8574174 250.65544,50.1017083 Z" id="Path" stroke="#FFFFFF" stroke-width="3"></path>
            <path d="M67.1474579,49.8423503 C66.9182359,49.5668696 66.7963571,49.2169543 66.804523,48.8577805 L66.804523,4.61945975 C66.7932096,4.25979151 66.9154701,3.90878037 67.1474579,3.63488993 C67.3546592,3.38541708 67.6607478,3.24068065 67.9838846,3.23937334 L72.6093242,3.23937334 C72.932461,3.24068065 73.2385497,3.38541708 73.4457509,3.63488993 C73.6777387,3.90878037 73.7999992,4.25979151 73.7886859,4.61945975 L73.7886859,22.4090375 L90.8434262,22.4090375 L90.8434262,4.61945975 C90.827935,4.25915707 90.9507157,3.90665235 91.1863612,3.63488993 C91.3920971,3.38351308 91.6991291,3.23833062 92.0227879,3.23937334 L96.6231347,3.23937334 C96.9467935,3.23833062 97.2538254,3.38351308 97.4595614,3.63488993 C97.6952068,3.90665235 97.8179875,4.25915707 97.8024963,4.61945975 L97.8024963,48.8577805 C97.8146228,49.2175742 97.6922623,49.5688725 97.4595614,49.8423503 C97.2516497,50.0908948 96.9460144,50.2354169 96.6231347,50.2378613 L92.0227879,50.2378613 C91.6999081,50.2354169 91.3942729,50.0908948 91.1863612,49.8423503 C90.9536602,49.5688725 90.8312997,49.2175742 90.8434262,48.8577805 L90.8434262,29.9237456 L73.8221429,29.9237456 L73.8221429,48.8577805 C73.8303088,49.2169543 73.70843,49.5668696 73.479208,49.8423503 C73.2699175,50.0890836 72.9651548,50.2331931 72.6427813,50.2378613 L68.059163,50.2378613 C67.7106306,50.2560214 67.37358,50.109804 67.1474579,49.8423503 Z" id="Path" stroke="#FFFFFF" stroke-width="3"></path>
            <path d="M5.40106041,50.5499403 C5.12754161,50.2908035 4.97188175,49.9305718 4.9703719,49.5532308 C4.98833778,49.3365264 5.03859084,49.1237463 5.11945638,48.9219814 L21.1046259,8.27284445 L1.49173398,8.27284445 C1.09220079,8.28691599 0.704791045,8.13392409 0.422104242,7.85043721 C0.139417438,7.56695034 -0.0131426722,7.17844412 0.000889155007,6.77778015 L0.000889155007,1.49521965 C-0.0123725947,1.09886449 0.137362124,0.714458716 0.415012717,0.432062818 C0.702128865,0.149868634 1.08975487,-0.00562059887 1.49173398,0 L26.9354856,0 C27.7467184,-0.00426606226 28.5262386,0.315812177 29.1014277,0.889511272 C29.6766168,1.46321037 30,2.24319051 30,3.05673124 L30,8.04027889 L13.7829213,49.5698426 C13.607863,49.9931003 13.3144712,50.3565513 12.9381092,50.6163876 C12.5597281,50.8669065 12.116014,51 11.6626087,50.9984596 L6.5274765,50.9984596 C6.10525171,51.0177897 5.69506111,50.8544589 5.40106041,50.5499403 Z" id="Path" fill="#FFFFFF" fill-rule="nonzero"></path>
            <path d="M34.7460829,49.8948737 C34.2148189,49.3862612 33.9165642,48.6829995 33.9210112,47.9494178 L33.9210112,42.7020414 C33.7995659,39.9035196 34.2764176,37.111217 35.3200459,34.5097088 C36.2972582,32.473169 37.7709185,30.7122378 39.6068316,29.3872699 C42.7649841,27.1664709 46.0335389,25.1053653 49.4000743,23.2117861 C50.7742239,22.4724981 51.9587568,21.428146 52.8617883,20.1597407 C53.5911789,19.0522571 53.9721157,17.7534929 53.9559052,16.4294629 C54.0325519,14.7752364 53.3770544,13.1706351 52.162271,12.038801 C50.7527348,10.860203 48.9418137,10.2659186 47.1042226,10.3789166 C44.1735965,10.4644304 41.3190665,11.3270567 38.8355689,12.8776673 C38.5695204,13.0135007 38.2735657,13.0809904 37.9746245,13.0739977 C37.4731513,13.0888333 37.0096542,12.8093061 36.7908259,12.3600689 L34.6025922,8.41561249 C34.4800503,8.21638416 34.4120309,7.98871563 34.4052924,7.75522838 C34.3898111,7.30284177 34.6146498,6.87571314 34.9971917,6.63079058 C36.8314268,5.39658054 38.8460647,4.45140291 40.9699936,3.82862018 C43.1868964,3.16632679 45.489084,2.82961 47.8037399,2.82911991 C51.5921248,2.61043072 55.3133129,3.89393352 58.1530092,6.39876373 C60.7247633,8.97648808 62.080124,12.51683 61.8837684,16.1438914 C61.9676509,18.8677345 61.1828077,21.5480826 59.6417256,23.8007774 C57.5939063,26.3759551 55.0817958,28.5488771 52.2340164,30.208288 C51.1757722,30.8686721 50.2968914,31.4041187 49.5973741,31.7967795 C48.0954692,32.6723844 46.6406365,33.6255926 45.238843,34.6524946 C44.2447563,35.4027987 43.4045073,36.335861 42.7636278,37.4011203 C42.0811615,38.5446721 41.7332776,39.8551907 41.7591927,41.1849428 L41.7591927,43.0947022 L58.9063356,43.0947022 C59.2815456,43.0803601 59.6457035,43.2227192 59.9107707,43.487363 C60.16691,43.7502148 60.3086783,44.1028943 60.3053703,44.4690151 L60.3053703,49.3415789 C60.3086783,49.7076997 60.16691,50.0603792 59.9107707,50.323231 C59.6617785,50.6208878 59.2954385,50.7966482 58.9063356,50.8051329 L36.7728896,50.8051329 C35.9989679,50.7976698 35.2636939,50.4674509 34.7460829,49.8948737 L34.7460829,49.8948737 Z" id="Path" fill="#FFFFFF" fill-rule="nonzero"></path>
        </g>
    </g>
</svg>
