<svg version="1" xmlns="http://www.w3.org/2000/svg" width="1296" height="1296" viewBox="0 0 972.000000 972.000000"><path d="M459 31.7c-31.2 2.2-71.6 9.2-98.4 17-94.9 27.5-180.7 86-238.7 162.9C63.4 288.9 32.8 376 28.5 477.5c-.8 17.4.8 47.6 3.5 68.5 1.9 15 5.5 34.9 6.5 35.8.3.3 3.1-1.9 6.2-4.9 10.1-9.6 20.2-15.5 31.4-18.4 7.7-2 23.1-2.3 31.2-.6 3.2.7 6.5 1 7.4.7 1.7-.7 1.8 0-1.2-21.6-6-44.7-2.7-97.8 9-142.5 36.6-140.1 147.8-245 291-274.5 50.6-10.5 108.6-9 161.5 4 44.5 11 84 28.5 122 54.1 37.1 25 65.1 52 94.2 90.8 1.8 2.5 3.7 4.5 4.2 4.5.6.1 2.4-2.3 4.1-5.2 8.6-14.2 18.2-23.4 31-29.6 8.3-4 14.3-5.6 24.5-6.5 5.5-.4 7.6-1 7.8-2.1.1-.8-4.4-7.7-10.1-15.2C776.8 114.1 666.6 50.5 540.5 34.6c-24.6-3.1-60.8-4.4-81.5-2.9z"/><path d="M461.5 142.6c-17.7 1.5-38.7 4.9-52 8.4-30.3 8.1-34.3 9.4-52.4 16.6-48 19.2-92.4 49.2-124 83.7-21.9 23.9-38.2 47.2-52.5 74.9-16.6 32.3-22 46.6-30.5 81.3-7.2 29.7-8.8 39.4-10.1 63.5-2.4 43.7 4.8 95.6 17.3 125.5 17.3 41.6 24.5 55.5 41.4 81 10.5 16 19.9 27.9 32.5 41.6 8.7 9.4 28.5 27.8 34.4 32.1 1.8 1.3 6.7 5 11 8.4 25.3 19.5 62 39.7 93.4 51.1 10 3.6 38.3 10.8 56 14.2 23.7 4.5 35 5.3 67.1 4.8 34.8-.4 43-1.5 79.6-10.6 50.2-12.3 104.2-40.9 142.3-75.2 31.2-28.1 56.8-59.9 76.1-94.7 6.6-12 21.2-46 24.8-57.8 3.7-12.2 8.9-34.4 12.2-51.9 3.2-16.6 3.3-17.8 3.5-48.5.3-35.4-.3-42.9-5.2-68.5-7-36.1-9.2-43-23.3-73.3-14.9-32.3-17.6-36.8-40-67.5-30.9-42.2-67.6-74.1-112.2-97.5-38.1-20.1-81.1-34.4-119.9-39.8-10.2-1.5-58.5-2.7-69.5-1.8zm134 199.7c27.8 9.1 42.8 31 41.2 60.1-1.5 26.6-10.7 38.9-61.6 81.4l-29.4 24.7 41.9.5c37.9.5 42.2.7 45.2 2.3 4.7 2.6 7.2 7.2 7.2 13.2 0 6.5-2.8 11-8.3 13.5-4 1.9-7.2 2-62.7 2-37.8 0-59.8-.4-62.3-1.1-5-1.3-10.3-6.1-11.7-10.5-1.6-4.8-.5-11.3 2.8-16.2 1.5-2.4 18.4-17.5 39.7-35.5 43.3-36.8 53.4-46.8 59.1-58.2 3.7-7.5 3.9-8.4 3.9-17.4 0-8.5-.3-10.2-2.7-14.7-3.1-5.9-8.4-10.8-14.7-13.8-3.7-1.7-6.5-2.1-14.6-2.1-9.4 0-10.5.2-17 3.4-5.1 2.5-9.6 6-16.2 12.5-5.1 4.9-10 9.4-10.9 9.9-.9.5-3.8.9-6.5.9-12.2 0-19.1-11.5-14-22.9 2.5-5.4 17-19.8 24.4-24.2 14.4-8.5 25.6-11.2 45.2-10.7 11.8.3 15.3.7 22 2.9zM468 344.6c9.3 7.9 8.2 16.7-5.3 42-4.1 7.6-15.9 29.9-26.2 49.4-50 94.8-51.2 97-53.8 99.9-7.6 8.3-23.5 6.1-28.5-4-2-4.1-2.2-5.1-1.2-9.5.6-2.6 6.1-14.1 12.2-25.4 6.1-11.3 14-25.9 17.6-32.4 3.5-6.6 10.7-19.9 15.9-29.5 5.3-9.7 14.3-26.4 20-37.1 5.8-10.7 11.1-20.5 11.9-21.7.8-1.2 1.4-2.7 1.4-3.3 0-.7-14.4-1-44-1-48.3 0-47.2.1-52.3-6-3.2-3.8-4.3-8.8-2.8-13.3 1.3-3.8 5.4-8.4 8.6-9.8 1.1-.4 29.3-.8 62.7-.8l60.6-.1 3.2 2.6zm273.7 123.6c-.3.8-.6.5-.6-.6-.1-1.1.2-1.7.5-1.3.3.3.4 1.2.1 1.9zm1 15c-.2 1.3-.4.3-.4-2.2s.2-3.5.4-2.3c.2 1.3.2 3.3 0 4.5zm0 24c-.2 1.3-.4.5-.4-1.7-.1-2.2.1-3.2.4-2.3.2 1 .2 2.8 0 4zm-1 12c-.3.8-.6.5-.6-.6-.1-1.1.2-1.7.5-1.3.3.3.4 1.2.1 1.9zm-397.8 39.4c1.9 2.4 2.1 4 2.1 16.7v14l2.2-2.8c3.1-4 11.3-7.5 17.4-7.5 7.4 0 14.7 3.9 18.2 9.8 2.7 4.7 2.7 4.7 3 27.3l.3 22.7-2.7 2.1c-3.5 2.7-5.9 2.7-8.9-.4-2.5-2.4-2.5-2.7-2.5-20 0-19.2-.7-22.5-5.5-26.3-3.6-2.9-10.8-3-15.3-.2-5.4 3.3-6.2 6.7-6.2 26.2 0 18.8-.5 21-5.5 22.2-2.5.6-6.4-.7-7.7-2.8-.4-.6-.8-19-.8-40.8v-39.7l2.2-1.5c3.4-2.4 7.3-2 9.7 1zm105 23.6c20.8 10.5 24.4 37.6 7.1 53.1-6.5 5.9-13.2 8.2-23.2 8.1-6.1-.1-8.7-.6-13-2.7-19-9.3-24.6-32.5-11.9-49.3 9.6-12.8 26.4-16.6 41-9.2zm68-.7c2 1.9 1.8 7.1-.3 9.4-1 1.1-3.2 2.3-5 2.7-5.1 1-9.4 4.3-12.4 9.2-2.6 4.4-2.7 5.5-3.2 20.3-.5 16.5-1 18.2-5.6 19.3-2.5.7-6.3-.8-7.6-2.8-.4-.6-.8-13.4-.8-28.5 0-24.1.2-27.7 1.7-29.3 1.6-1.8 6.8-2.4 8.9-1 1.9 1.2 3.4 4.9 3.4 8.3v3.3l2.9-4.5c4.7-7.6 13.6-10.7 18-6.4zm49.9 1.1c4.2 2.2 6.4 4.1 8.7 7.8l3 4.9.3 20.6c.2 11.3.1 21.5-.2 22.7-.3 1.2-2 2.7-3.6 3.4-3.9 1.6-7.6.1-9-3.6-1-2.5-1.1-2.6-3.3-1-5.4 4-10.2 5.6-17.3 5.6-13.6 0-22.4-7.4-22.4-19 0-7.4 3.5-12.9 10.4-16.4 4.9-2.6 6.9-3 13.9-3 4.5-.1 10.3.3 13 .7 4.7.8 4.7.8 4.7-2 0-4.4-3.3-8.9-7.6-10.3-3.5-1.2-10.8-1-21.9.6-5 .7-8.1-2-7.1-6 .9-3.5 4.2-5.4 12.2-7.1 10.2-2.1 19.3-1.4 26.2 2.1zm57.4-2.5c5.6 1.2 12.8 4.4 14 6.3 1.2 1.7.9 6.1-.4 7.4-1.7 1.7-6.3 1.5-9.9-.3-7.6-4-17.7-3.7-20 .6-2.3 4.5 1.8 8 13.1 11.3 8 2.3 15.7 7.1 17.7 10.9 2 3.8 2.2 12.2.3 15.8-4.2 8-11.7 11.4-24.4 10.7-6.5-.3-9.4-1.1-14.8-3.7-3.7-1.7-7.3-4.1-7.9-5.2-1.5-2.9-.3-6.8 2.6-8.1 2.1-.9 3.4-.6 8.8 2.1 10.4 5.3 21.6 5.2 23.6-.1 1.9-5.1-1.1-7.5-14.4-11.7-3.8-1.2-8.7-3.4-10.8-4.7-3.9-2.5-7.6-8.9-7.7-12.9 0-7.7 6-15.5 13.9-18 5.7-1.7 9.5-1.8 16.3-.4zM457.7 741.6c-.3.3-1.2.4-1.9.1-.8-.3-.5-.6.6-.6 1.1-.1 1.7.2 1.3.5zm67 0c-.3.3-1.2.4-1.9.1-.8-.3-.5-.6.6-.6 1.1-.1 1.7.2 1.3.5zm-59 1c-.3.3-1.2.4-1.9.1-.8-.3-.5-.6.6-.6 1.1-.1 1.7.2 1.3.5zm51 0c-.3.3-1.2.4-1.9.1-.8-.3-.5-.6.6-.6 1.1-.1 1.7.2 1.3.5zm-37.9 1.1c-1 .2-2.6.2-3.5 0-1-.3-.2-.5 1.7-.5s2.7.2 1.8.5zm24.5 0c-.7.2-2.1.2-3 0-1-.3-.4-.5 1.2-.5 1.7 0 2.4.2 1.8.5z"/><path d="M428.6 592.2c-10.9 2.9-16.7 18-11.1 28.8 4.9 9.4 16.9 12.9 26.1 7.5 5.6-3.3 8.5-8.1 9.1-15.4 1-10.2-4.5-18.4-14.2-21-4.6-1.2-4.7-1.2-9.9.1zm115.9 22.2c-2.2.9-4.8 2.5-5.7 3.7-2 2.4-2.3 7-.8 10 2.7 4.9 12.2 6.3 19.7 3 4.9-2.3 7-5.1 7.9-10.8.6-3.9.5-4.3-2-5.2-4.9-1.9-14.8-2.2-19.1-.7z"/><path d="M851.3 261c-8.7 1.8-19 8.7-24.4 16.6-5.3 7.7-7.1 14.6-6.7 25.4.4 9.1.7 10.1 6 21.6 23.9 51.7 35.1 103.1 35.1 160.9 0 41.4-5.6 76.3-19 117C811.7 696.1 742.8 775.2 653 820c-40 20-81.1 32.1-128.5 37.6-17.9 2.2-61.4 2.4-77 .5-46.9-5.7-84.7-16.6-124.3-35.7-39-18.7-72.1-42.3-103.2-73.4-36.5-36.4-63.5-77.2-83.7-126.5-6.8-16.5-10-22-16.5-28-7.9-7.4-16.1-10-28.8-9.3-15.7.9-27.9 8.8-34.1 22.3-5.4 11.4-4.8 24.8 1.7 42.2 4 10.5 24.4 51.8 32.4 65.3 20.2 34.3 42.9 63.8 70.8 91.7 71.7 71.9 164.9 117.7 266.8 131.2 65.4 8.7 137.7 1.5 201.9-20 115.7-38.8 210.2-120.3 263.7-227.4 30.5-61 46.4-124.4 48.6-194.6 1.3-40.6-1.9-73.6-11.3-115.9-9-40.1-30.3-95.2-41.7-107.6-8.5-9.3-24.8-14.1-38.5-11.4z"/></svg>