<?xml version="1.0" encoding="UTF-8"?>
<svg width="512px" height="512px" viewBox="0 0 512 512" version="1.1" xmlns="http://www.w3.org/2000/svg" xmlns:xlink="http://www.w3.org/1999/xlink">
    <title>Group</title>
    <g id="Page-1" stroke="none" stroke-width="1" fill="none" fill-rule="evenodd">
        <g id="Group" fill-rule="nonzero">
            <path d="M256,416 C370.9,416 464,322.9 464,208 C464,93.1 370.9,0 256,0 C141.1,0 48,93.1 48,208 C48,322.9 141.1,416 256,416 Z M233.8,97.4 L233.8,80.6 C233.789345,76.1941485 235.534847,71.9656799 238.650263,68.8502633 C241.76568,65.7348467 245.994148,63.9893449 250.4,63.9999515 L261.5,63.9999515 C265.905852,63.9893449 270.13432,65.7348467 273.249737,68.8502633 C276.365153,71.9656799 278.110655,76.1941485 278.1,80.6 L278.1,97.6 C293.638876,98.3780586 308.600171,103.73629 321.1,113 C323.769656,114.947854 325.443815,117.974425 325.675157,121.271042 C325.906498,124.567658 324.671448,127.798384 322.3,130.1 L306,145.6 C302.2,149.3 296.5,149.4 292,146.6 C286.677037,143.231495 280.499149,141.461426 274.2,141.5 L235.3,141.5 C226.3,141.5 219,149.7 219,159.8 C219,168 224,175.3 231.1,177.4 L293.4,196.1 C319.1,203.8 337.1,228.5 337.1,256.2 C337.1,290.2 310.7,317.7 278,318.6 L278,335.4 C278.010655,339.805852 276.265153,344.03432 273.149737,347.149737 C270.03432,350.265153 265.805852,352.010655 261.4,352.000048 L250.3,352.000048 C245.894148,352.010655 241.66568,350.265153 238.550263,347.149737 C235.434847,344.03432 233.689345,339.805852 233.7,335.4 L233.7,318.4 C218.161124,317.621941 203.199829,312.26371 190.7,303 C188.030344,301.052146 186.356185,298.025575 186.124843,294.728958 C185.893502,291.432342 187.128552,288.201616 189.5,285.9 L205.8,270.4 C209.6,266.7 215.3,266.6 219.8,269.4 C225.122963,272.768505 231.300851,274.538574 237.6,274.5 L276.5,274.5 C285.5,274.5 292.8,266.3 292.8,256.2 C292.8,248 287.8,240.7 280.7,238.6 L218.4,219.9 C192.7,212.2 174.7,187.5 174.7,159.8 C174.8,125.8 201.1,98.3 233.8,97.4 L233.8,97.4 Z" id="Shape" fill-opacity="0.22" fill="#63CAC7"></path>
            <path d="M218.4,219.9 L280.7,238.6 C287.8,240.7 292.8,248 292.8,256.2 C292.8,266.3 285.5,274.5 276.5,274.5 L237.6,274.5 C231.300851,274.538574 225.122963,272.768505 219.8,269.4 C215.3,266.6 209.6,266.7 205.8,270.4 L189.5,285.9 C187.128552,288.201616 185.893502,291.432342 186.124843,294.728958 C186.356185,298.025575 188.030344,301.052146 190.7,303 C203.199829,312.26371 218.161124,317.621941 233.7,318.4 L233.7,335.4 C233.689345,339.805852 235.434847,344.03432 238.550263,347.149737 C241.66568,350.265153 245.894148,352.010655 250.3,352.000048 L261.4,352.000048 C265.805852,352.010655 270.03432,350.265153 273.149737,347.149737 C276.265153,344.03432 278.010655,339.805852 278,335.4 L278,318.6 C310.7,317.7 337.1,290.2 337.1,256.2 C337.1,228.5 319.1,203.8 293.4,196.1 L231.1,177.4 C224,175.3 219,168 219,159.8 C219,149.7 226.3,141.5 235.3,141.5 L274.2,141.5 C280.499149,141.461426 286.677037,143.231495 292,146.6 C296.5,149.4 302.2,149.3 306,145.6 L322.3,130.1 C324.671448,127.798384 325.906498,124.567658 325.675157,121.271042 C325.443815,117.974425 323.769656,114.947854 321.1,113 C308.600171,103.73629 293.638876,98.3780586 278.1,97.6 L278.1,80.6 C278.110655,76.1941485 276.365153,71.9656799 273.249737,68.8502633 C270.13432,65.7348467 265.905852,63.9893449 261.5,63.9999515 L250.4,63.9999515 C245.994148,63.9893449 241.76568,65.7348467 238.650263,68.8502633 C235.534847,71.9656799 233.789345,76.1941485 233.8,80.6 L233.8,97.4 C201.1,98.3 174.8,125.8 174.7,159.8 C174.7,187.5 192.7,212.2 218.4,219.9 Z M480,352 L447.5,352 C427.732004,378.038297 402.900614,399.808283 374.5,416 L438.3,416 C443.6,416 447.9,419.6 447.9,424 L447.9,440 C447.9,444.4 443.6,448 438.3,448 L73.6,448 C68.3,448 64,444.4 64,440 L64,424 C64,419.6 68.3,416 73.6,416 L137.4,416 C109.01859,399.78134 84.1921951,378.015733 64.4,352 L32,352 C14.326888,352 0,366.326888 0,384 L0,480 C0,497.673112 14.326888,512 32,512 L480,512 C497.673112,512 512,497.673112 512,480 L512,384 C512,366.326888 497.673112,352 480,352 Z" id="Shape" fill="#22B1A7"></path>
        </g>
    </g>
</svg>